SplineFontDB: 3.2
FontName: HD2097
FullName: 2097
FamilyName: HD2097
Weight: Regular
Copyright: 2097 remake by NR74W (2021).\nOriginal font design by Studio Liverpool (2008).
UComments: "2021-3-28: Created with FontForge (http://fontforge.org)"
FontLog: "The 2097 font from WipEout HD, released for the PlayStation 3 in 2008.+AAoA-Made by Sony Computer Entertainment Europe Studio Liverpool.+AAoACgAA-Version 1.0.+AAoA-Homepage: https://github.com/NR74W/WipEout-Fonts+AAoACgAA-The font used for the 2097 HUD in WipEout HD, it was a pretty good font (unlike WO3).+AAoA-It is reminiscent of the Amalgama font created by The Designers Republic, used for WipEout 1 / 2097 / 64.+AAoACgAA-For unknown reason, the middle horizontal bar is off-center, maybe this is intentional.+AAoA-The inverted question mark is incorrect, it was also like this in the original font.+AAoACgAA-Since the font name cannot be a number, I named it HD2097.+AAoACgAA--- NR74W (2021)"
Version: 1.00
ItalicAngle: 0
UnderlinePosition: -100
UnderlineWidth: 50
Ascent: 800
Descent: 200
InvalidEm: 0
LayerCount: 2
Layer: 0 0 "Arri+AOgA-re" 1
Layer: 1 0 "Avant" 0
XUID: [1021 17 266829378 18786]
StyleMap: 0x0040
FSType: 0
OS2Version: 0
OS2_WeightWidthSlopeOnly: 0
OS2_UseTypoMetrics: 1
CreationTime: 1616944234
ModificationTime: 1622329937
PfmFamily: 81
TTFWeight: 400
TTFWidth: 5
LineGap: 94
VLineGap: 0
OS2TypoAscent: 0
OS2TypoAOffset: 1
OS2TypoDescent: 0
OS2TypoDOffset: 1
OS2TypoLinegap: 94
OS2WinAscent: 0
OS2WinAOffset: 1
OS2WinDescent: 0
OS2WinDOffset: 1
HheadAscent: 0
HheadAOffset: 1
HheadDescent: 0
HheadDOffset: 1
OS2Vendor: 'PfEd'
MarkAttachClasses: 1
DEI: 91125
LangName: 1033
Encoding: UnicodeBmp
Compacted: 1
UnicodeInterp: none
NameList: AGL For New Fonts
DisplaySize: -48
AntiAlias: 1
FitToEm: 0
WinInfo: 0 32 9
BeginPrivate: 5
BlueValues 21 [0 0 528 528 786 786]
StdHW 5 [138]
StdVW 5 [138]
StemSnapH 13 [108 138 156]
StemSnapV 9 [138 162]
EndPrivate
Grid
-100 582 m 1
 760 582 l 1025
-100 786 m 1
 760 786 l 1025

StartChar: U
Encoding: 85 85 0
Width: 798
VWidth: 1024
Flags: W
HStem: 0 138<139.901 520.099> 508 20G<0 138 522 660>
VStem: 0 138<139.901 528> 522 138<139.901 528>
LayerCount: 2
Fore
SplineSet
0 528 m 1
 138 528 l 1
 138 165 l 1
 138 150 150 138 165 138 c 1
 495 138 l 1
 510 138 522 150 522 165 c 1
 522 528 l 1
 660 528 l 1
 660 165 l 1
 660 74 586 0 495 0 c 1
 165 0 l 1
 74 0 0 74 0 165 c 1
 0 528 l 1
EndSplineSet
Validated: 1
EndChar

StartChar: zero
Encoding: 48 48 1
Width: 798
VWidth: 1024
Flags: W
HStem: 0 138<139.901 520.099> 390 138<139.901 520.099>
VStem: 0 138<139.901 388.099> 522 138<139.901 388.099>
LayerCount: 2
Fore
SplineSet
138 165 m 1
 138 150 150 138 165 138 c 1
 495 138 l 1
 510 138 522 150 522 165 c 1
 522 363 l 1
 522 378 510 390 495 390 c 1
 165 390 l 1
 150 390 138 378 138 363 c 1
 138 165 l 1
0 165 m 1
 0 363 l 1
 0 454 74 528 165 528 c 1
 495 528 l 1
 586 528 660 454 660 363 c 1
 660 165 l 1
 660 74 586 0 495 0 c 1
 165 0 l 1
 74 0 0 74 0 165 c 1
EndSplineSet
Validated: 1
EndChar

StartChar: one
Encoding: 49 49 2
Width: 276
VWidth: 1024
Flags: W
HStem: 0 21G<0 138> 508 20G<0 138>
VStem: 0 138<0 528>
LayerCount: 2
Fore
SplineSet
0 0 m 17
 0 528 l 1
 138 528 l 1
 138 0 l 1
 0 0 l 17
EndSplineSet
Validated: 1
EndChar

StartChar: A
Encoding: 65 65 3
Width: 798
VWidth: 1024
Flags: W
HStem: 0 138<139.901 520.099> 192 138<139.901 462> 390 138<0 520.099>
VStem: 0 138<139.16 190.84> 522 138<139.901 388.099>
LayerCount: 2
Fore
SplineSet
0 390 m 1
 0 528 l 1
 495 528 l 1
 586 528 660 454 660 363 c 1
 660 165 l 5
 660 74 586 0 495 0 c 5
 165 0 l 5
 74 0 0 74 0 165 c 0
 0 256 74 330 165 330 c 1
 462 330 l 9
 462 192 l 17
 165 192 l 1
 150 192 138 180 138 165 c 0
 138 150 150 138 165 138 c 5
 495 138 l 5
 510 138 522 150 522 165 c 5
 522 363 l 1
 522 378 510 390 495 390 c 1
 0 390 l 1
EndSplineSet
Validated: 1
EndChar

StartChar: underscore
Encoding: 95 95 4
Width: 918
VWidth: 1024
Flags: W
HStem: 0 138<0 780>
LayerCount: 2
Fore
SplineSet
0 0 m 1
 0 138 l 1
 780 138 l 1
 780 0 l 1
 0 0 l 1
EndSplineSet
Validated: 1
EndChar

StartChar: I
Encoding: 73 73 5
Width: 276
VWidth: 1024
Flags: W
HStem: 0 21G<0 138> 508 20G<0 138>
VStem: 0 138<0 528>
LayerCount: 2
Fore
SplineSet
0 0 m 17
 0 528 l 1
 138 528 l 1
 138 0 l 1
 0 0 l 17
EndSplineSet
Validated: 1
EndChar

StartChar: B
Encoding: 66 66 6
Width: 798
VWidth: 1024
Flags: W
HStem: 0 138<139.901 520.099> 192 138<198 520.099> 508 20G<0 138>
VStem: 0 138<139.901 528> 522 138<139.16 190.84>
LayerCount: 2
Fore
SplineSet
0 528 m 9
 138 528 l 17
 138 165 l 1
 138 150 150 138 165 138 c 1
 495 138 l 1
 510 138 522 150 522 165 c 0
 522 180 510 192 495 192 c 1
 198 192 l 9
 198 330 l 17
 495 330 l 1
 586 330 660 256 660 165 c 0
 660 74 586 0 495 0 c 1
 165 0 l 1
 74 0 0 74 0 165 c 1
 0 528 l 9
EndSplineSet
Validated: 1
EndChar

StartChar: C
Encoding: 67 67 7
Width: 798
VWidth: 1024
Flags: W
HStem: 0 138<139.901 660> 390 138<139.901 660>
VStem: 0 138<139.901 388.099>
LayerCount: 2
Fore
SplineSet
0 165 m 1
 0 363 l 1
 0 454 74 528 165 528 c 1
 660 528 l 1
 660 390 l 1
 165 390 l 1
 150 390 138 378 138 363 c 1
 138 165 l 1
 138 150 150 138 165 138 c 1
 660 138 l 9
 660 0 l 1
 165 0 l 1
 74 0 0 74 0 165 c 1
EndSplineSet
Validated: 1
EndChar

StartChar: O
Encoding: 79 79 8
Width: 798
VWidth: 1024
Flags: W
HStem: 0 138<139.901 520.099> 390 138<139.901 520.099>
VStem: 0 138<139.901 388.099> 522 138<139.901 388.099>
LayerCount: 2
Fore
SplineSet
138 165 m 1
 138 150 150 138 165 138 c 1
 495 138 l 1
 510 138 522 150 522 165 c 1
 522 363 l 1
 522 378 510 390 495 390 c 1
 165 390 l 1
 150 390 138 378 138 363 c 1
 138 165 l 1
0 165 m 5
 0 363 l 1
 0 454 74 528 165 528 c 1
 495 528 l 1
 586 528 660 454 660 363 c 1
 660 165 l 5
 660 74 586 0 495 0 c 5
 165 0 l 5
 74 0 0 74 0 165 c 5
EndSplineSet
Validated: 1
EndChar

StartChar: T
Encoding: 84 84 9
Width: 798
VWidth: 1024
Flags: W
HStem: 0 21G<261 399> 390 138<0 261 399 660>
VStem: 261 138<0 390>
LayerCount: 2
Fore
SplineSet
0 390 m 1
 0 528 l 17
 660 528 l 1
 660 390 l 1
 399 390 l 1
 399 0 l 1
 261 0 l 1
 261 390 l 1
 0 390 l 1
EndSplineSet
Validated: 1
EndChar

StartChar: P
Encoding: 80 80 10
Width: 798
VWidth: 1024
Flags: W
HStem: 0 21G<0 138> 198 138<198 520.099> 390 138<139.901 520.099>
VStem: 0 138<0 388.099> 522 138<337.16 388.84>
LayerCount: 2
Fore
SplineSet
0 0 m 17
 0 363 l 1
 0 454 74 528 165 528 c 1
 495 528 l 1
 586 528 660 454 660 363 c 0
 660 272 586 198 495 198 c 1
 198 198 l 9
 198 336 l 17
 495 336 l 1
 510 336 522 348 522 363 c 0
 522 378 510 390 495 390 c 1
 165 390 l 1
 150 390 138 378 138 363 c 1
 138 0 l 9
 0 0 l 17
EndSplineSet
Validated: 1
EndChar

StartChar: period
Encoding: 46 46 11
Width: 276
VWidth: 1024
Flags: W
HStem: 0 138<0 138>
VStem: 0 138<0 138>
LayerCount: 2
Fore
SplineSet
0 0 m 1
 0 138 l 1
 138 138 l 1
 138 0 l 1
 0 0 l 1
EndSplineSet
Validated: 1
EndChar

StartChar: Agrave
Encoding: 192 192 12
Width: 798
VWidth: 1024
Flags: W
HStem: 0 138<139.901 520.099> 192 138<139.901 462> 390 138<0 520.099>
VStem: 0 138<139.16 190.84> 522 138<139.901 388.099>
DStem2: 309 786 201 732 0.707107 -0.707107<0 173.948>
LayerCount: 2
Fore
SplineSet
201 786 m 1
 309 786 l 25
 459 636 l 1
 459 582 l 25
 351 582 l 1
 201 732 l 25
 201 786 l 1
0 390 m 1
 0 528 l 1
 495 528 l 1
 586 528 660 454 660 363 c 1
 660 165 l 1
 660 74 586 0 495 0 c 1
 165 0 l 1
 74 0 0 74 0 165 c 0
 0 256 74 330 165 330 c 1
 462 330 l 9
 462 192 l 17
 165 192 l 1
 150 192 138 180 138 165 c 0
 138 150 150 138 165 138 c 1
 495 138 l 1
 510 138 522 150 522 165 c 1
 522 363 l 1
 522 378 510 390 495 390 c 1
 0 390 l 1
EndSplineSet
Validated: 1
EndChar

StartChar: Aacute
Encoding: 193 193 13
Width: 798
VWidth: 1024
Flags: W
HStem: 0 138<139.901 520.099> 192 138<139.901 462> 390 138<0 520.099>
VStem: 0 138<139.16 190.84> 522 138<139.901 388.099>
DStem2: 201 636 309 582 0.707107 0.707107<38.1838 212.132>
LayerCount: 2
Fore
SplineSet
201 582 m 25
 201 636 l 1
 351 786 l 25
 459 786 l 1
 459 732 l 25
 309 582 l 1
 201 582 l 25
0 390 m 1
 0 528 l 1
 495 528 l 1
 586 528 660 454 660 363 c 1
 660 165 l 1
 660 74 586 0 495 0 c 1
 165 0 l 1
 74 0 0 74 0 165 c 0
 0 256 74 330 165 330 c 1
 462 330 l 9
 462 192 l 17
 165 192 l 1
 150 192 138 180 138 165 c 0
 138 150 150 138 165 138 c 1
 495 138 l 1
 510 138 522 150 522 165 c 1
 522 363 l 1
 522 378 510 390 495 390 c 1
 0 390 l 1
EndSplineSet
Validated: 1
EndChar

StartChar: Acircumflex
Encoding: 194 194 14
Width: 798
VWidth: 1024
Flags: W
HStem: 0 138<139.901 520.099> 192 138<139.901 462> 390 138<0 520.099> 678 108<276 384>
VStem: 0 138<139.16 190.84> 522 138<139.901 388.099>
LayerCount: 2
Fore
SplineSet
126 582 m 25
 126 636 l 1
 276 786 l 1
 384 786 l 1
 534 636 l 1
 534 582 l 25
 426 582 l 1
 330 678 l 1
 234 582 l 1
 126 582 l 25
0 390 m 1
 0 528 l 1
 495 528 l 1
 586 528 660 454 660 363 c 1
 660 165 l 1
 660 74 586 0 495 0 c 1
 165 0 l 1
 74 0 0 74 0 165 c 0
 0 256 74 330 165 330 c 1
 462 330 l 9
 462 192 l 17
 165 192 l 1
 150 192 138 180 138 165 c 0
 138 150 150 138 165 138 c 1
 495 138 l 1
 510 138 522 150 522 165 c 1
 522 363 l 1
 522 378 510 390 495 390 c 1
 0 390 l 1
EndSplineSet
Validated: 1
EndChar

StartChar: Atilde
Encoding: 195 195 15
Width: 798
VWidth: 1024
Flags: W
HStem: 0 138<139.901 520.099> 192 138<139.901 462> 390 138<0 520.099> 678 108<204 312>
VStem: 0 138<139.16 190.84> 522 138<139.901 388.099>
LayerCount: 2
Fore
SplineSet
54 582 m 25
 54 636 l 1
 204 786 l 1
 312 786 l 1
 399 699 l 1
 474 786 l 1
 606 786 l 1
 432 582 l 1
 354 582 l 1
 258 678 l 1
 162 582 l 1
 54 582 l 25
0 390 m 1
 0 528 l 1
 495 528 l 1
 586 528 660 454 660 363 c 1
 660 165 l 1
 660 74 586 0 495 0 c 1
 165 0 l 1
 74 0 0 74 0 165 c 0
 0 256 74 330 165 330 c 1
 462 330 l 9
 462 192 l 17
 165 192 l 1
 150 192 138 180 138 165 c 0
 138 150 150 138 165 138 c 1
 495 138 l 1
 510 138 522 150 522 165 c 1
 522 363 l 1
 522 378 510 390 495 390 c 1
 0 390 l 1
EndSplineSet
Validated: 1
EndChar

StartChar: Adieresis
Encoding: 196 196 16
Width: 798
VWidth: 1024
Flags: W
HStem: 0 138<139.901 520.099> 192 138<139.901 462> 390 138<0 520.099> 630 156<102 264 396 558>
VStem: 0 138<139.16 190.84> 102 162<630 786> 396 162<630 786> 522 138<139.901 388.099>
LayerCount: 2
Fore
SplineSet
396 630 m 1xf2
 396 786 l 1
 558 786 l 1
 558 630 l 1
 396 630 l 1xf2
102 630 m 1xf4
 102 786 l 1
 264 786 l 1
 264 630 l 1
 102 630 l 1xf4
0 390 m 1xf9
 0 528 l 1
 495 528 l 1
 586 528 660 454 660 363 c 1
 660 165 l 1
 660 74 586 0 495 0 c 1
 165 0 l 1
 74 0 0 74 0 165 c 0
 0 256 74 330 165 330 c 1
 462 330 l 9
 462 192 l 17
 165 192 l 1
 150 192 138 180 138 165 c 0
 138 150 150 138 165 138 c 1
 495 138 l 1
 510 138 522 150 522 165 c 1
 522 363 l 1
 522 378 510 390 495 390 c 1
 0 390 l 1xf9
EndSplineSet
Validated: 1
EndChar

StartChar: Aring
Encoding: 197 197 17
Width: 798
VWidth: 1024
Flags: W
HStem: 0 138<139.901 520.099> 192 138<139.901 462> 390 138<0 520.099> 630 156<249 411>
VStem: 0 138<139.16 190.84> 249 162<630 786> 522 138<139.901 388.099>
CounterMasks: 1 0e
LayerCount: 2
Fore
SplineSet
249 630 m 1
 249 786 l 1
 411 786 l 1
 411 630 l 1
 249 630 l 1
0 390 m 1
 0 528 l 1
 495 528 l 1
 586 528 660 454 660 363 c 1
 660 165 l 1
 660 74 586 0 495 0 c 1
 165 0 l 1
 74 0 0 74 0 165 c 0
 0 256 74 330 165 330 c 1
 462 330 l 9
 462 192 l 17
 165 192 l 1
 150 192 138 180 138 165 c 0
 138 150 150 138 165 138 c 1
 495 138 l 1
 510 138 522 150 522 165 c 1
 522 363 l 1
 522 378 510 390 495 390 c 1
 0 390 l 1
EndSplineSet
Validated: 1
EndChar

StartChar: AE
Encoding: 198 198 18
Width: 1320
VWidth: 1024
Flags: W
HStem: 0 138<139.901 521.391 660.609 1182> 192 138<139.901 462 720 1037.99> 390 138<0 521.391 660.609 1042.1>
VStem: 0 138<139.16 190.84> 522 138<138.419 389.581> 1044 138<337.16 388.84>
CounterMasks: 1 1c
LayerCount: 2
Fore
SplineSet
0 390 m 1
 0 528 l 1
 495 528 l 2
 531 528 564 517 591 497 c 1
 618 517 651 528 687 528 c 2
 1017 528 l 2
 1108 528 1182 454 1182 363 c 0
 1182 272 1108 198 1017 198 c 2
 720 198 l 1
 720 336 l 1
 1017 336 l 2
 1032 336 1044 348 1044 363 c 0
 1044 378 1032 390 1017 390 c 2
 687 390 l 2
 672 390 660 378 660 363 c 2
 660 165 l 2
 660 150 672 138 687 138 c 2
 1182 138 l 1
 1182 0 l 1
 687 0 l 2
 651 0 618 11 591 31 c 1
 564 11 531 -0 495 0 c 2
 165 0 l 2
 74 0 0 74 0 165 c 0
 0 256 74 330 165 330 c 2
 462 330 l 1
 462 192 l 1
 165 192 l 2
 150 192 138 180 138 165 c 0
 138 150 150 138 165 138 c 2
 495 138 l 2
 510 138 522 150 522 165 c 2
 522 363 l 2
 522 378 510 390 495 390 c 2
 0 390 l 1
EndSplineSet
Validated: 1
EndChar

StartChar: E
Encoding: 69 69 19
Width: 798
VWidth: 1024
Flags: W
HStem: 0 138<139.901 660> 198 138<198 520.099> 390 138<139.901 520.099>
VStem: 0 138<139.901 388.099> 522 138<337.16 388.84>
LayerCount: 2
Fore
SplineSet
0 165 m 1
 0 363 l 1
 0 454 74 528 165 528 c 1
 495 528 l 1
 586 528 660 454 660 363 c 0
 660 272 586 198 495 198 c 1
 198 198 l 9
 198 336 l 17
 495 336 l 1
 510 336 522 348 522 363 c 0
 522 378 510 390 495 390 c 1
 165 390 l 1
 150 390 138 378 138 363 c 1
 138 165 l 1
 138 150 150 138 165 138 c 1
 660 138 l 1
 660 0 l 1
 165 0 l 1
 74 0 0 74 0 165 c 1
EndSplineSet
Validated: 1
EndChar

StartChar: Ccedilla
Encoding: 199 199 20
Width: 798
VWidth: 1024
Flags: W
HStem: 0 138<139.901 312 474 660> 390 138<139.901 660>
VStem: 0 138<139.901 388.099>
LayerCount: 2
Fore
SplineSet
0 165 m 1
 0 363 l 1
 0 454 74 528 165 528 c 1
 660 528 l 1
 660 390 l 1
 165 390 l 1
 150 390 138 378 138 363 c 1
 138 165 l 1
 138 150 150 138 165 138 c 1
 660 138 l 9
 660 0 l 1
 474 0 l 1
 324 -150 l 1
 216 -150 l 25
 216 -96 l 1
 312 0 l 1
 165 0 l 1
 74 0 0 74 0 165 c 1
EndSplineSet
Validated: 1
EndChar

StartChar: Egrave
Encoding: 200 200 21
Width: 798
VWidth: 1024
Flags: W
HStem: 0 138<139.901 660> 198 138<198 520.099> 390 138<139.901 520.099>
VStem: 0 138<139.901 388.099> 522 138<337.16 388.84>
DStem2: 309 786 201 732 0.707107 -0.707107<0 173.948>
LayerCount: 2
Fore
SplineSet
201 786 m 1
 309 786 l 25
 459 636 l 1
 459 582 l 25
 351 582 l 1
 201 732 l 25
 201 786 l 1
0 165 m 1
 0 363 l 1
 0 454 74 528 165 528 c 1
 495 528 l 1
 586 528 660 454 660 363 c 0
 660 272 586 198 495 198 c 1
 198 198 l 9
 198 336 l 17
 495 336 l 1
 510 336 522 348 522 363 c 0
 522 378 510 390 495 390 c 1
 165 390 l 1
 150 390 138 378 138 363 c 1
 138 165 l 1
 138 150 150 138 165 138 c 1
 660 138 l 1
 660 0 l 1
 165 0 l 1
 74 0 0 74 0 165 c 1
EndSplineSet
Validated: 1
EndChar

StartChar: Eacute
Encoding: 201 201 22
Width: 798
VWidth: 1024
Flags: W
HStem: 0 138<139.901 660> 198 138<198 520.099> 390 138<139.901 520.099>
VStem: 0 138<139.901 388.099> 522 138<337.16 388.84>
DStem2: 201 636 309 582 0.707107 0.707107<38.1838 212.132>
LayerCount: 2
Fore
SplineSet
201 582 m 25
 201 636 l 1
 351 786 l 25
 459 786 l 1
 459 732 l 25
 309 582 l 1
 201 582 l 25
0 165 m 1
 0 363 l 1
 0 454 74 528 165 528 c 1
 495 528 l 1
 586 528 660 454 660 363 c 0
 660 272 586 198 495 198 c 1
 198 198 l 9
 198 336 l 17
 495 336 l 1
 510 336 522 348 522 363 c 0
 522 378 510 390 495 390 c 1
 165 390 l 1
 150 390 138 378 138 363 c 1
 138 165 l 1
 138 150 150 138 165 138 c 1
 660 138 l 1
 660 0 l 1
 165 0 l 1
 74 0 0 74 0 165 c 1
EndSplineSet
Validated: 1
EndChar

StartChar: Ecircumflex
Encoding: 202 202 23
Width: 798
VWidth: 1024
Flags: W
HStem: 0 138<139.901 660> 198 138<198 520.099> 390 138<139.901 520.099> 678 108<276 384>
VStem: 0 138<139.901 388.099> 522 138<337.16 388.84>
LayerCount: 2
Fore
SplineSet
126 582 m 25
 126 636 l 1
 276 786 l 1
 384 786 l 1
 534 636 l 1
 534 582 l 25
 426 582 l 1
 330 678 l 1
 234 582 l 1
 126 582 l 25
0 165 m 1
 0 363 l 1
 0 454 74 528 165 528 c 1
 495 528 l 1
 586 528 660 454 660 363 c 0
 660 272 586 198 495 198 c 1
 198 198 l 9
 198 336 l 17
 495 336 l 1
 510 336 522 348 522 363 c 0
 522 378 510 390 495 390 c 1
 165 390 l 1
 150 390 138 378 138 363 c 1
 138 165 l 1
 138 150 150 138 165 138 c 1
 660 138 l 1
 660 0 l 1
 165 0 l 1
 74 0 0 74 0 165 c 1
EndSplineSet
Validated: 1
EndChar

StartChar: Edieresis
Encoding: 203 203 24
Width: 798
VWidth: 1024
Flags: W
HStem: 0 138<139.901 660> 198 138<198 520.099> 390 138<139.901 520.099> 630 156<102 264 396 558>
VStem: 0 138<139.901 388.099> 102 162<630 786> 396 162<630 786> 522 138<337.16 388.84>
LayerCount: 2
Fore
SplineSet
396 630 m 1xf2
 396 786 l 1
 558 786 l 1
 558 630 l 1
 396 630 l 1xf2
102 630 m 1xf4
 102 786 l 1
 264 786 l 1
 264 630 l 1
 102 630 l 1xf4
0 165 m 1xf9
 0 363 l 1
 0 454 74 528 165 528 c 1
 495 528 l 1
 586 528 660 454 660 363 c 0
 660 272 586 198 495 198 c 1
 198 198 l 9
 198 336 l 17
 495 336 l 1
 510 336 522 348 522 363 c 0
 522 378 510 390 495 390 c 1
 165 390 l 1
 150 390 138 378 138 363 c 1
 138 165 l 1
 138 150 150 138 165 138 c 1
 660 138 l 1
 660 0 l 1
 165 0 l 1
 74 0 0 74 0 165 c 1xf9
EndSplineSet
Validated: 1
EndChar

StartChar: Igrave
Encoding: 204 204 25
Width: 396
VWidth: 1024
Flags: W
HStem: 0 21G<60 198> 508 20G<60 198>
VStem: 60 138<0 528>
DStem2: 108 786 0 732 0.707107 -0.707107<0 173.948>
LayerCount: 2
Fore
SplineSet
0 786 m 1
 108 786 l 25
 258 636 l 1
 258 582 l 25
 150 582 l 1
 0 732 l 25
 0 786 l 1
60 0 m 17
 60 528 l 1
 198 528 l 1
 198 0 l 1
 60 0 l 17
EndSplineSet
Validated: 1
EndChar

StartChar: Iacute
Encoding: 205 205 26
Width: 396
VWidth: 1024
Flags: W
HStem: 0 21G<60 198> 508 20G<60 198>
VStem: 60 138<0 528>
DStem2: 0 636 108 582 0.707107 0.707107<38.1838 212.132>
LayerCount: 2
Fore
SplineSet
0 582 m 25
 0 636 l 1
 150 786 l 25
 258 786 l 1
 258 732 l 25
 108 582 l 1
 0 582 l 25
60 0 m 17
 60 528 l 1
 198 528 l 1
 198 0 l 1
 60 0 l 17
EndSplineSet
Validated: 1
EndChar

StartChar: Icircumflex
Encoding: 206 206 27
Width: 546
VWidth: 1024
Flags: W
HStem: 0 21G<135 273> 508 20G<135 273> 678 108<150 258>
VStem: 135 138<0 528>
LayerCount: 2
Fore
SplineSet
0 582 m 25
 0 636 l 1
 150 786 l 1
 258 786 l 1
 408 636 l 1
 408 582 l 25
 300 582 l 1
 204 678 l 1
 108 582 l 1
 0 582 l 25
135 0 m 17
 135 528 l 1
 273 528 l 1
 273 0 l 1
 135 0 l 17
EndSplineSet
Validated: 1
EndChar

StartChar: Idieresis
Encoding: 207 207 28
Width: 594
VWidth: 1024
Flags: W
HStem: 0 21G<159 297> 508 20G<159 297> 630 156<0 162 294 456>
VStem: 0 162<630 786> 159 138<0 528> 294 162<630 786>
LayerCount: 2
Fore
SplineSet
294 630 m 1xe4
 294 786 l 1
 456 786 l 1
 456 630 l 1
 294 630 l 1xe4
0 630 m 1xf0
 0 786 l 1
 162 786 l 1
 162 630 l 1
 0 630 l 1xf0
159 0 m 17xe8
 159 528 l 1
 297 528 l 1
 297 0 l 1
 159 0 l 17xe8
EndSplineSet
Validated: 1
EndChar

StartChar: N
Encoding: 78 78 29
Width: 798
VWidth: 1024
Flags: W
HStem: 0 21G<0 138 522 660> 390 138<139.901 520.099>
VStem: 0 138<0 388.099> 522 138<0 388.099>
LayerCount: 2
Fore
SplineSet
0 0 m 1
 0 363 l 1
 0 454 74 528 165 528 c 1
 495 528 l 1
 586 528 660 454 660 363 c 1
 660 0 l 1
 522 0 l 1
 522 363 l 1
 522 378 510 390 495 390 c 1
 165 390 l 1
 150 390 138 378 138 363 c 1
 138 0 l 1
 0 0 l 1
EndSplineSet
Validated: 1
EndChar

StartChar: J
Encoding: 74 74 30
Width: 474
VWidth: 1024
Flags: W
HStem: 0 138<0 196.099> 508 20G<198 336>
VStem: 198 138<139.901 528>
LayerCount: 2
Fore
SplineSet
0 0 m 9
 0 138 l 17
 171 138 l 1
 186 138 198 150 198 165 c 1
 198 528 l 1
 336 528 l 1
 336 165 l 1
 336 74 262 0 171 0 c 1
 0 0 l 9
EndSplineSet
Validated: 1
EndChar

StartChar: L
Encoding: 76 76 31
Width: 474
VWidth: 1024
Flags: W
HStem: 0 138<139.901 336> 508 20G<0 138>
VStem: 0 138<139.901 528>
LayerCount: 2
Fore
SplineSet
0 165 m 1
 0 528 l 1
 138 528 l 1
 138 165 l 1
 138 150 150 138 165 138 c 1
 336 138 l 9
 336 0 l 17
 165 0 l 1
 74 0 0 74 0 165 c 1
EndSplineSet
Validated: 1
EndChar

StartChar: S
Encoding: 83 83 32
Width: 798
VWidth: 1024
Flags: W
HStem: 0 138<0 520.099> 198 138<139.901 520.099> 390 138<139.901 660>
VStem: 0 138<337.16 388.84>
LayerCount: 2
Fore
SplineSet
0 0 m 1
 0 138 l 1
 495 138 l 1
 510 138 522 150 522 165 c 1
 522 171 l 1
 522 186 510 198 495 198 c 1
 165 198 l 1
 74 198 0 272 0 363 c 0
 0 454 74 528 165 528 c 1
 660 528 l 9
 660 390 l 17
 165 390 l 1
 150 390 138 378 138 363 c 0
 138 348 150 336 165 336 c 1
 495 336 l 1
 586 336 660 262 660 171 c 1
 660 165 l 1
 660 74 586 0 495 0 c 1
 0 0 l 1
EndSplineSet
Validated: 1
EndChar

StartChar: R
Encoding: 82 82 33
Width: 798
VWidth: 1024
Flags: W
HStem: 0 21G<0 138 522 660> 198 138<198 521.581> 390 138<138 520.099>
VStem: 0 138<0 390> 522 138<0 197.391 336.514 388.84>
LayerCount: 2
Fore
SplineSet
0 0 m 1
 0 528 l 1
 495 528 l 1
 586 528 660 454 660 363 c 0
 660 327 649 294 629 267 c 1
 649 240 660 207 660 171 c 1
 660 0 l 9
 522 0 l 17
 522 171 l 1
 522 186 510 198 495 198 c 1
 198 198 l 1
 198 336 l 17
 495 336 l 1
 510 336 522 348 522 363 c 0
 522 378 510 390 495 390 c 1
 138 390 l 1
 138 0 l 1
 0 0 l 1
EndSplineSet
Validated: 1
EndChar

StartChar: Q
Encoding: 81 81 34
Width: 798
VWidth: 1024
Flags: W
HStem: 0 138<139.901 324 462 520.099> 390 138<139.901 520.099>
VStem: 0 138<139.901 388.099> 324 138<-126 0 138 264> 522 138<139.901 388.099>
LayerCount: 2
Fore
SplineSet
0 165 m 2
 0 363 l 2
 0 454 74 528 165 528 c 2
 495 528 l 2
 586 528 660 454 660 363 c 2
 660 165 l 2
 660 74 586 0 495 0 c 2
 462 -0 l 1
 462 -126 l 1
 324 -126 l 1
 324 0 l 1
 165 0 l 2
 74 0 0 74 0 165 c 2
138 165 m 2
 138 150 150 138 165 138 c 2
 324 138 l 1
 324 264 l 1
 462 264 l 1
 462 138 l 1
 495 138 l 2
 510 138 522 150 522 165 c 2
 522 363 l 2
 522 378 510 390 495 390 c 2
 165 390 l 2
 150 390 138 378 138 363 c 2
 138 165 l 2
EndSplineSet
Validated: 1
EndChar

StartChar: D
Encoding: 68 68 35
Width: 798
VWidth: 1024
Flags: W
HStem: 0 138<198 520.099> 390 138<139.901 520.099>
VStem: 0 138<0 388.099> 522 138<139.901 388.099>
LayerCount: 2
Fore
SplineSet
0 0 m 1
 0 363 l 1
 0 454 74 528 165 528 c 1
 495 528 l 1
 586 528 660 454 660 363 c 1
 660 165 l 1
 660 74 586 0 495 0 c 1
 198 0 l 9
 198 138 l 1
 495 138 l 1
 510 138 522 150 522 165 c 1
 522 363 l 1
 522 378 510 390 495 390 c 1
 165 390 l 1
 150 390 138 378 138 363 c 1
 138 0 l 1
 0 0 l 1
EndSplineSet
Validated: 1
EndChar

StartChar: F
Encoding: 70 70 36
Width: 798
VWidth: 1024
Flags: W
HStem: 0 21G<0 138> 198 138<138 660> 390 138<139.901 660>
VStem: 0 138<0 198 336 388.099>
LayerCount: 2
Fore
SplineSet
0 0 m 17
 0 363 l 1
 0 454 74 528 165 528 c 1
 660 528 l 9
 660 390 l 17
 165 390 l 1
 150 390 138 378 138 363 c 1
 138 336 l 1
 660 336 l 1
 660 198 l 1
 138 198 l 1
 138 0 l 1
 0 0 l 17
EndSplineSet
Validated: 1
EndChar

StartChar: G
Encoding: 71 71 37
Width: 798
VWidth: 1024
Flags: W
HStem: 0 138<0 520.099> 198 138<139.901 462> 390 138<139.901 520.099>
VStem: 0 138<337.16 388.84> 522 138<139.901 388.099>
LayerCount: 2
Fore
SplineSet
0 0 m 1
 0 138 l 1
 495 138 l 1
 510 138 522 150 522 165 c 1
 522 363 l 1
 522 378 510 390 495 390 c 1
 165 390 l 1
 150 390 138 378 138 363 c 0
 138 348 150 336 165 336 c 1
 462 336 l 9
 462 198 l 17
 165 198 l 1
 74 198 0 272 0 363 c 0
 0 454 74 528 165 528 c 1
 495 528 l 1
 586 528 660 454 660 363 c 1
 660 165 l 1
 660 74 586 0 495 0 c 1
 0 0 l 1
EndSplineSet
Validated: 1
EndChar

StartChar: V
Encoding: 86 86 38
Width: 798
VWidth: 1024
Flags: W
HStem: 0 138<304.16 355.84> 390 138<0 163.099 496.901 660>
VStem: 165 138<139.901 388.099> 357 138<139.901 388.099>
LayerCount: 2
Fore
SplineSet
0 390 m 9
 0 528 l 17
 138 528 l 1
 229 528 303 454 303 363 c 1
 303 165 l 1
 303 150 315 138 330 138 c 0
 345 138 357 150 357 165 c 1
 357 363 l 1
 357 454 431 528 522 528 c 1
 660 528 l 9
 660 390 l 17
 522 390 l 1
 507 390 495 378 495 363 c 1
 495 165 l 1
 495 74 421 0 330 0 c 0
 239 0 165 74 165 165 c 1
 165 363 l 1
 165 378 153 390 138 390 c 1
 0 390 l 9
EndSplineSet
Validated: 1
EndChar

StartChar: Z
Encoding: 90 90 39
Width: 798
VWidth: 1024
Flags: W
HStem: 0 138<139.901 660> 198 138<139.901 520.099> 390 138<0 520.099>
VStem: 522 138<337.16 388.84>
LayerCount: 2
Fore
SplineSet
0 390 m 9
 0 528 l 17
 495 528 l 1
 586 528 660 454 660 363 c 0
 660 272 586 198 495 198 c 1
 165 198 l 1
 150 198 138 186 138 171 c 1
 138 165 l 1
 138 150 150 138 165 138 c 1
 660 138 l 1
 660 0 l 1
 165 0 l 1
 74 0 0 74 0 165 c 1
 0 171 l 1
 0 262 74 336 165 336 c 1
 495 336 l 1
 510 336 522 348 522 363 c 0
 522 378 510 390 495 390 c 1
 0 390 l 9
EndSplineSet
Validated: 1
EndChar

StartChar: H
Encoding: 72 72 40
Width: 798
VWidth: 1024
Flags: W
HStem: 0 21G<0 138 522 660> 198 138<138 522> 508 20G<0 138 522 660>
VStem: 0 138<0 198 336 528> 522 138<0 198 336 528>
LayerCount: 2
Fore
SplineSet
0 0 m 1
 0 528 l 9
 138 528 l 17
 138 336 l 1
 522 336 l 1
 522 528 l 1
 660 528 l 17
 660 0 l 1
 522 0 l 1
 522 198 l 1
 138 198 l 1
 138 0 l 1
 0 0 l 1
EndSplineSet
Validated: 1
EndChar

StartChar: K
Encoding: 75 75 41
Width: 798
VWidth: 1024
Flags: W
HStem: 0 21G<0 138 522 660> 198 138<138 521.581> 508 20G<0 138 522 660>
VStem: 0 138<0 198 336 528> 522 138<0 197.391 336.609 528>
LayerCount: 2
Fore
SplineSet
0 0 m 1
 0 528 l 9
 138 528 l 17
 138 336 l 1
 495 336 l 1
 510 336 522 348 522 363 c 1
 522 528 l 1
 660 528 l 1
 660 363 l 1
 660 327 649 294 629 267 c 1
 649 240 660 207 660 171 c 1
 660 0 l 9
 522 0 l 17
 522 171 l 1
 522 186 510 198 495 198 c 1
 138 198 l 1
 138 0 l 1
 0 0 l 1
EndSplineSet
Validated: 1
EndChar

StartChar: X
Encoding: 88 88 42
Width: 798
VWidth: 1024
Flags: W
HStem: 0 21G<0 138 522 660> 198 138<138.419 521.581> 508 20G<0 138 522 660>
VStem: 0 138<0 197.391 336.609 528> 522 138<0 197.391 336.609 528>
LayerCount: 2
Fore
SplineSet
0 0 m 17
 0 171 l 1
 0 207 11 240 31 267 c 1
 11 294 0 327 0 363 c 1
 0 528 l 1
 138 528 l 1
 138 363 l 1
 138 348 150 336 165 336 c 1
 495 336 l 1
 510 336 522 348 522 363 c 1
 522 528 l 1
 660 528 l 1
 660 363 l 1
 660 327 649 294 629 267 c 1
 649 240 660 207 660 171 c 1
 660 0 l 9
 522 0 l 17
 522 171 l 1
 522 186 510 198 495 198 c 1
 165 198 l 1
 150 198 138 186 138 171 c 1
 138 0 l 9
 0 0 l 17
EndSplineSet
Validated: 1
EndChar

StartChar: ae
Encoding: 230 230 43
Width: 1320
VWidth: 1024
Flags: W
HStem: 0 138<139.901 521.391 660.609 1182> 192 138<139.901 462 720 1037.99> 390 138<0 521.391 660.609 1042.1>
VStem: 0 138<139.16 190.84> 522 138<138.419 389.581> 1044 138<337.16 388.84>
CounterMasks: 1 1c
LayerCount: 2
Fore
SplineSet
0 390 m 1
 0 528 l 1
 495 528 l 2
 531 528 564 517 591 497 c 1
 618 517 651 528 687 528 c 2
 1017 528 l 2
 1108 528 1182 454 1182 363 c 0
 1182 272 1108 198 1017 198 c 2
 720 198 l 1
 720 336 l 1
 1017 336 l 2
 1032 336 1044 348 1044 363 c 0
 1044 378 1032 390 1017 390 c 2
 687 390 l 2
 672 390 660 378 660 363 c 2
 660 165 l 2
 660 150 672 138 687 138 c 2
 1182 138 l 1
 1182 0 l 1
 687 0 l 2
 651 0 618 11 591 31 c 1
 564 11 531 -0 495 0 c 2
 165 0 l 2
 74 0 0 74 0 165 c 0
 0 256 74 330 165 330 c 2
 462 330 l 1
 462 192 l 1
 165 192 l 2
 150 192 138 180 138 165 c 0
 138 150 150 138 165 138 c 2
 495 138 l 2
 510 138 522 150 522 165 c 2
 522 363 l 2
 522 378 510 390 495 390 c 2
 0 390 l 1
EndSplineSet
Validated: 1
EndChar

StartChar: two
Encoding: 50 50 44
Width: 798
VWidth: 1024
Flags: W
HStem: 0 138<138 660> 198 138<139.901 520.099> 390 138<0 520.099>
VStem: 522 138<337.16 388.84>
LayerCount: 2
Fore
SplineSet
0 0 m 1
 0 171 l 1
 0 262 74 336 165 336 c 1
 495 336 l 1
 510 336 522 348 522 363 c 0
 522 378 510 390 495 390 c 1
 0 390 l 9
 0 528 l 17
 495 528 l 1
 586 528 660 454 660 363 c 0
 660 272 586 198 495 198 c 1
 165 198 l 1
 150 198 138 186 138 171 c 1
 138 138 l 1
 660 138 l 1
 660 0 l 1
 0 0 l 1
EndSplineSet
Validated: 1
EndChar

StartChar: three
Encoding: 51 51 45
Width: 798
VWidth: 1024
Flags: W
HStem: 0 138<0 520.099> 198 138<0 521.581> 390 138<0 520.099>
VStem: 522 138<139.901 197.391 336.514 388.84>
LayerCount: 2
Fore
SplineSet
0 0 m 9
 0 138 l 1
 495 138 l 1
 510 138 522 150 522 165 c 1
 522 171 l 1
 522 186 510 198 495 198 c 1
 0 198 l 9
 0 336 l 1
 495 336 l 1
 510 336 522 348 522 363 c 0
 522 378 510 390 495 390 c 1
 0 390 l 9
 0 528 l 1
 495 528 l 1
 586 528 660 454 660 363 c 1
 660 327 649 294 629 267 c 1
 649 240 660 207 660 171 c 9
 660 165 l 17
 660 74 586 0 495 0 c 1
 0 0 l 9
EndSplineSet
Validated: 1
EndChar

StartChar: five
Encoding: 53 53 46
Width: 798
VWidth: 1024
Flags: W
HStem: 0 138<0 520.099> 198 138<139.901 520.099> 390 138<138 660>
LayerCount: 2
Fore
SplineSet
0 0 m 1
 0 138 l 1
 495 138 l 1
 510 138 522 150 522 165 c 1
 522 171 l 1
 522 186 510 198 495 198 c 1
 165 198 l 1
 74 198 0 272 0 363 c 9
 0 528 l 1
 660 528 l 1
 660 390 l 1
 138 390 l 1
 138 363 l 17
 138 348 150 336 165 336 c 1
 495 336 l 1
 586 336 660 262 660 171 c 1
 660 165 l 1
 660 74 586 0 495 0 c 1
 0 0 l 1
EndSplineSet
Validated: 1
EndChar

StartChar: six
Encoding: 54 54 47
Width: 798
VWidth: 1024
Flags: W
HStem: 0 138<139.901 520.099> 198 138<138 520.099> 390 138<139.901 660>
VStem: 0 138<139.901 198 336 388.099>
LayerCount: 2
Fore
SplineSet
0 165 m 9
 0 363 l 1
 0 454 74 528 165 528 c 1
 660 528 l 9
 660 390 l 17
 165 390 l 1
 150 390 138 378 138 363 c 9
 138 336 l 17
 495 336 l 1
 586 336 660 262 660 171 c 1
 660 165 l 1
 660 74 586 0 495 0 c 1
 165 0 l 1
 74 0 0 74 0 165 c 9
138 165 m 17
 138 150 150 138 165 138 c 1
 495 138 l 1
 510 138 522 150 522 165 c 1
 522 171 l 1
 522 186 510 198 495 198 c 1
 138 198 l 9
 138 165 l 17
EndSplineSet
Validated: 1
EndChar

StartChar: eight
Encoding: 56 56 48
Width: 798
VWidth: 1024
Flags: W
HStem: 0 138<139.901 520.099> 198 138<138.419 521.581> 390 138<139.901 520.099>
VStem: 0 138<139.901 197.391 336.514 388.84> 522 138<139.901 197.391 336.514 388.84>
LayerCount: 2
Fore
SplineSet
0 165 m 9
 0 171 l 17
 0 207 11 240 31 267 c 1
 11 294 0 327 0 363 c 1
 0 454 74 528 165 528 c 1
 495 528 l 1
 586 528 660 454 660 363 c 1
 660 327 649 294 629 267 c 1
 649 240 660 207 660 171 c 9
 660 165 l 17
 660 74 586 0 495 0 c 1
 165 0 l 1
 74 0 0 74 0 165 c 9
138 165 m 1
 138 150 150 138 165 138 c 1
 495 138 l 1
 510 138 522 150 522 165 c 1
 522 171 l 1
 522 186 510 198 495 198 c 1
 165 198 l 1
 150 198 138 186 138 171 c 1
 138 165 l 1
138 363 m 0
 138 348 150 336 165 336 c 1
 495 336 l 1
 510 336 522 348 522 363 c 0
 522 378 510 390 495 390 c 1
 165 390 l 1
 150 390 138 378 138 363 c 0
EndSplineSet
Validated: 1
EndChar

StartChar: four
Encoding: 52 52 49
Width: 798
VWidth: 1024
Flags: W
HStem: 0 21G<522 660> 198 138<139.901 522> 508 20G<0 138 522 660>
VStem: 0 138<337.901 528> 522 138<0 198 336 528>
LayerCount: 2
Fore
SplineSet
0 528 m 9
 138 528 l 17
 138 363 l 1
 138 348 150 336 165 336 c 1
 522 336 l 1
 522 528 l 1
 660 528 l 17
 660 0 l 1
 522 0 l 1
 522 198 l 1
 165 198 l 1
 74 198 0 272 0 363 c 1
 0 528 l 9
EndSplineSet
Validated: 1
EndChar

StartChar: nine
Encoding: 57 57 50
Width: 798
VWidth: 1024
Flags: W
HStem: 0 138<0 520.099> 198 138<139.901 522> 390 138<139.901 520.099>
VStem: 0 138<337.16 388.84> 522 138<139.901 198 336 388.099>
LayerCount: 2
Fore
SplineSet
138 363 m 0
 138 348 150 336 165 336 c 1
 522 336 l 1
 522 363 l 1
 522 378 510 390 495 390 c 1
 165 390 l 1
 150 390 138 378 138 363 c 0
0 0 m 1
 0 138 l 1
 495 138 l 1
 510 138 522 150 522 165 c 1
 522 198 l 1
 165 198 l 1
 74 198 0 272 0 363 c 0
 0 454 74 528 165 528 c 1
 495 528 l 1
 586 528 660 454 660 363 c 1
 660 165 l 1
 660 74 586 0 495 0 c 1
 0 0 l 1
EndSplineSet
Validated: 1
EndChar

StartChar: seven
Encoding: 55 55 51
Width: 732
VWidth: 1024
Flags: W
HStem: 0 21G<456 594> 198 138<138 456> 390 138<0 454.099>
VStem: 456 138<0 198 336 388.099>
LayerCount: 2
Fore
SplineSet
0 390 m 1
 0 528 l 1
 429 528 l 1
 520 528 594 454 594 363 c 1
 594 0 l 9
 456 0 l 1
 456 198 l 1
 138 198 l 1
 138 336 l 1
 456 336 l 1
 456 363 l 1
 456 378 444 390 429 390 c 1
 0 390 l 1
EndSplineSet
Validated: 1
EndChar

StartChar: M
Encoding: 77 77 52
Width: 756
VWidth: 1024
Flags: W
HStem: 0 21G<0 138 240 378 480 618> 390 138<139.95 238.945 379.055 478.05>
VStem: 0 138<0 384.986> 240 138<0 386.759> 480 138<0 384.986>
CounterMasks: 1 38
LayerCount: 2
Fore
SplineSet
0 0 m 1
 0 363 l 1
 0 459 69 528 189 528 c 0
 238 528 278 517 309 497 c 1
 340 517 380 528 429 528 c 0
 549 528 618 459 618 363 c 1
 618 0 l 1
 480 0 l 1
 480 363 l 1
 480 378 468 390 429 390 c 0
 390 390 378 378 378 363 c 1
 378 0 l 1
 240 0 l 1
 240 363 l 1
 240 378 228 390 189 390 c 0
 150 390 138 378 138 363 c 1
 138 0 l 1
 0 0 l 1
EndSplineSet
Validated: 1
EndChar

StartChar: W
Encoding: 87 87 53
Width: 756
VWidth: 1024
Flags: W
HStem: 0 138<139.95 238.945 379.055 478.05> 508 20G<0 138 240 378 480 618>
VStem: 0 138<143.014 528> 240 138<141.241 528> 480 138<143.014 528>
CounterMasks: 1 38
LayerCount: 2
Fore
SplineSet
0 528 m 1
 138 528 l 1
 138 165 l 1
 138 150 150 138 189 138 c 0
 228 138 240 150 240 165 c 1
 240 528 l 1
 378 528 l 1
 378 165 l 1
 378 150 390 138 429 138 c 0
 468 138 480 150 480 165 c 1
 480 528 l 1
 618 528 l 1
 618 165 l 1
 618 69 549 0 429 0 c 0
 380 0 340 11 309 31 c 1
 278 11 238 0 189 0 c 0
 69 0 0 69 0 165 c 1
 0 528 l 1
EndSplineSet
Validated: 1
EndChar

StartChar: Y
Encoding: 89 89 54
Width: 798
VWidth: 1024
Flags: W
HStem: 0 138<0 520.099> 198 138<139.901 521.581> 508 20G<0 138 522 660>
VStem: 0 138<337.901 528> 522 138<139.901 197.391 336.609 528>
LayerCount: 2
Fore
SplineSet
0 0 m 1
 0 138 l 17
 495 138 l 1
 510 138 522 150 522 165 c 1
 522 171 l 1
 522 186 510 198 495 198 c 1
 165 198 l 1
 74 198 0 272 0 363 c 1
 0 528 l 9
 138 528 l 1
 138 363 l 1
 138 348 150 336 165 336 c 1
 495 336 l 1
 510 336 522 348 522 363 c 9
 522 528 l 1
 660 528 l 1
 660 363 l 1
 660 327 649 294 629 267 c 1
 649 240 660 207 660 171 c 9
 660 165 l 17
 660 74 586 0 495 0 c 1
 0 0 l 1
EndSplineSet
Validated: 1
EndChar

StartChar: dollar
Encoding: 36 36 55
Width: 798
VWidth: 1024
Flags: W
HStem: 0 138<0 261 399 520.099> 198 138<139.901 261 399 520.099> 390 138<139.901 261 399 660>
VStem: 0 138<337.16 388.84> 261 138<-126 0 138 198 336 390 528 654>
LayerCount: 2
Fore
SplineSet
0 0 m 1
 0 138 l 1
 261 138 l 1
 261 198 l 1
 165 198 l 2
 74 198 0 272 0 363 c 0
 0 454 74 528 165 528 c 2
 261 528 l 1
 261 654 l 1
 399 654 l 1
 399 528 l 1
 660 528 l 1
 660 390 l 1
 399 390 l 1
 399 336 l 1
 495 336 l 2
 586 336 660 262 660 171 c 2
 660 165 l 2
 660 74 586 0 495 0 c 2
 399 -0 l 1
 399 -126 l 1
 261 -126 l 1
 261 0 l 1
 0 0 l 1
399 138 m 1
 495 138 l 2
 510 138 522 150 522 165 c 2
 522 171 l 2
 522 186 510 198 495 198 c 2
 399 198 l 1
 399 138 l 1
261 390 m 1
 165 390 l 2
 150 390 138 378 138 363 c 0
 138 348 150 336 165 336 c 2
 261 336 l 1
 261 390 l 1
EndSplineSet
Validated: 1
EndChar

StartChar: exclam
Encoding: 33 33 56
Width: 276
VWidth: 1024
Flags: W
HStem: 0 138<0 138> 508 20G<0 138>
VStem: 0 138<0 138 198 528>
LayerCount: 2
Fore
SplineSet
0 198 m 17
 0 528 l 1
 138 528 l 1
 138 198 l 1
 0 198 l 17
0 0 m 1
 0 138 l 1
 138 138 l 1
 138 0 l 1
 0 0 l 1
EndSplineSet
Validated: 1
EndChar

StartChar: quotedbl
Encoding: 34 34 57
Width: 480
VWidth: 1024
Flags: W
HStem: 390 138<0 138 204 342>
VStem: 0 138<390 528> 204 138<390 528>
LayerCount: 2
Fore
SplineSet
204 390 m 1
 204 528 l 1
 342 528 l 1
 342 390 l 1
 204 390 l 1
0 390 m 1
 0 528 l 1
 138 528 l 1
 138 390 l 1
 0 390 l 1
EndSplineSet
Validated: 1
EndChar

StartChar: quotesingle
Encoding: 39 39 58
Width: 276
VWidth: 1024
Flags: W
HStem: 390 138<0 138>
VStem: 0 138<390 528>
LayerCount: 2
Fore
SplineSet
0 390 m 1
 0 528 l 1
 138 528 l 1
 138 390 l 1
 0 390 l 1
EndSplineSet
Validated: 1
EndChar

StartChar: grave
Encoding: 96 96 59
Width: 276
VWidth: 1024
Flags: W
HStem: 390 138<0 138>
VStem: 0 138<390 528>
LayerCount: 2
Fore
SplineSet
0 390 m 1
 0 528 l 1
 138 528 l 1
 138 390 l 1
 0 390 l 1
EndSplineSet
Validated: 1
EndChar

StartChar: Ntilde
Encoding: 209 209 60
Width: 798
VWidth: 1024
Flags: W
HStem: 0 21G<0 138 522 660> 390 138<139.901 520.099> 678 108<204 312>
VStem: 0 138<0 388.099> 522 138<0 388.099>
LayerCount: 2
Fore
SplineSet
54 582 m 25
 54 636 l 1
 204 786 l 1
 312 786 l 1
 399 699 l 1
 474 786 l 1
 606 786 l 1
 432 582 l 1
 354 582 l 1
 258 678 l 1
 162 582 l 1
 54 582 l 25
0 0 m 1
 0 363 l 1
 0 454 74 528 165 528 c 1
 495 528 l 1
 586 528 660 454 660 363 c 1
 660 0 l 1
 522 0 l 1
 522 363 l 1
 522 378 510 390 495 390 c 1
 165 390 l 1
 150 390 138 378 138 363 c 1
 138 0 l 1
 0 0 l 1
EndSplineSet
Validated: 1
EndChar

StartChar: Eth
Encoding: 208 208 61
Width: 864
VWidth: 1024
Flags: W
HStem: 0 138<264 586.099> 192 138<0 66 204 282> 390 138<205.901 586.099>
VStem: 66 138<0 192 330 388.099> 588 138<139.901 388.099>
LayerCount: 2
Fore
SplineSet
66 0 m 1
 66 192 l 1
 0 192 l 1
 0 330 l 1
 66 330 l 1
 66 363 l 1
 66 454 140 528 231 528 c 1
 561 528 l 1
 652 528 726 454 726 363 c 1
 726 165 l 1
 726 74 652 0 561 0 c 1
 264 0 l 9
 264 138 l 1
 561 138 l 1
 576 138 588 150 588 165 c 1
 588 363 l 1
 588 378 576 390 561 390 c 1
 231 390 l 1
 216 390 204 378 204 363 c 1
 204 330 l 1
 282 330 l 1
 282 192 l 1
 204 192 l 1
 204 0 l 1
 66 0 l 1
EndSplineSet
Validated: 1
EndChar

StartChar: Ograve
Encoding: 210 210 62
Width: 798
VWidth: 1024
Flags: W
HStem: 0 138<139.901 520.099> 390 138<139.901 520.099>
VStem: 0 138<139.901 388.099> 522 138<139.901 388.099>
DStem2: 309 786 201 732 0.707107 -0.707107<0 173.948>
LayerCount: 2
Fore
SplineSet
201 786 m 1
 309 786 l 25
 459 636 l 1
 459 582 l 25
 351 582 l 1
 201 732 l 25
 201 786 l 1
138 165 m 1
 138 150 150 138 165 138 c 1
 495 138 l 1
 510 138 522 150 522 165 c 1
 522 363 l 1
 522 378 510 390 495 390 c 1
 165 390 l 1
 150 390 138 378 138 363 c 1
 138 165 l 1
0 165 m 1
 0 363 l 1
 0 454 74 528 165 528 c 1
 495 528 l 1
 586 528 660 454 660 363 c 1
 660 165 l 1
 660 74 586 0 495 0 c 1
 165 0 l 1
 74 0 0 74 0 165 c 1
EndSplineSet
Validated: 1
EndChar

StartChar: Oacute
Encoding: 211 211 63
Width: 798
VWidth: 1024
Flags: W
HStem: 0 138<139.901 520.099> 390 138<139.901 520.099>
VStem: 0 138<139.901 388.099> 522 138<139.901 388.099>
DStem2: 201 636 309 582 0.707107 0.707107<38.1838 212.132>
LayerCount: 2
Fore
SplineSet
201 582 m 25
 201 636 l 1
 351 786 l 25
 459 786 l 1
 459 732 l 25
 309 582 l 1
 201 582 l 25
138 165 m 1
 138 150 150 138 165 138 c 1
 495 138 l 1
 510 138 522 150 522 165 c 1
 522 363 l 1
 522 378 510 390 495 390 c 1
 165 390 l 1
 150 390 138 378 138 363 c 1
 138 165 l 1
0 165 m 1
 0 363 l 1
 0 454 74 528 165 528 c 1
 495 528 l 1
 586 528 660 454 660 363 c 1
 660 165 l 1
 660 74 586 0 495 0 c 1
 165 0 l 1
 74 0 0 74 0 165 c 1
EndSplineSet
Validated: 1
EndChar

StartChar: Ocircumflex
Encoding: 212 212 64
Width: 798
VWidth: 1024
Flags: W
HStem: 0 138<139.901 520.099> 390 138<139.901 520.099> 678 108<276 384>
VStem: 0 138<139.901 388.099> 522 138<139.901 388.099>
LayerCount: 2
Fore
SplineSet
126 582 m 25
 126 636 l 1
 276 786 l 1
 384 786 l 1
 534 636 l 1
 534 582 l 25
 426 582 l 1
 330 678 l 1
 234 582 l 1
 126 582 l 25
138 165 m 1
 138 150 150 138 165 138 c 1
 495 138 l 1
 510 138 522 150 522 165 c 1
 522 363 l 1
 522 378 510 390 495 390 c 1
 165 390 l 1
 150 390 138 378 138 363 c 1
 138 165 l 1
0 165 m 1
 0 363 l 1
 0 454 74 528 165 528 c 1
 495 528 l 1
 586 528 660 454 660 363 c 1
 660 165 l 1
 660 74 586 0 495 0 c 1
 165 0 l 1
 74 0 0 74 0 165 c 1
EndSplineSet
Validated: 1
EndChar

StartChar: Otilde
Encoding: 213 213 65
Width: 798
VWidth: 1024
Flags: W
HStem: 0 138<139.901 520.099> 390 138<139.901 520.099> 678 108<204 312>
VStem: 0 138<139.901 388.099> 522 138<139.901 388.099>
LayerCount: 2
Fore
SplineSet
54 582 m 25
 54 636 l 1
 204 786 l 1
 312 786 l 1
 399 699 l 1
 474 786 l 1
 606 786 l 1
 432 582 l 1
 354 582 l 1
 258 678 l 1
 162 582 l 1
 54 582 l 25
138 165 m 1
 138 150 150 138 165 138 c 1
 495 138 l 1
 510 138 522 150 522 165 c 1
 522 363 l 1
 522 378 510 390 495 390 c 1
 165 390 l 1
 150 390 138 378 138 363 c 1
 138 165 l 1
0 165 m 1
 0 363 l 1
 0 454 74 528 165 528 c 1
 495 528 l 1
 586 528 660 454 660 363 c 1
 660 165 l 1
 660 74 586 0 495 0 c 1
 165 0 l 1
 74 0 0 74 0 165 c 1
EndSplineSet
Validated: 1
EndChar

StartChar: Odieresis
Encoding: 214 214 66
Width: 798
VWidth: 1024
Flags: W
HStem: 0 138<139.901 520.099> 390 138<139.901 520.099> 630 156<102 264 396 558>
VStem: 0 138<139.901 388.099> 102 162<630 786> 396 162<630 786> 522 138<139.901 388.099>
LayerCount: 2
Fore
SplineSet
396 630 m 1xe4
 396 786 l 1
 558 786 l 1
 558 630 l 1
 396 630 l 1xe4
102 630 m 1xe8
 102 786 l 1
 264 786 l 1
 264 630 l 1
 102 630 l 1xe8
138 165 m 1xf2
 138 150 150 138 165 138 c 1
 495 138 l 1
 510 138 522 150 522 165 c 1
 522 363 l 1
 522 378 510 390 495 390 c 1
 165 390 l 1
 150 390 138 378 138 363 c 1
 138 165 l 1xf2
0 165 m 1
 0 363 l 1
 0 454 74 528 165 528 c 1
 495 528 l 1
 586 528 660 454 660 363 c 1
 660 165 l 1
 660 74 586 0 495 0 c 1
 165 0 l 1
 74 0 0 74 0 165 c 1
EndSplineSet
Validated: 1
EndChar

StartChar: Oslash
Encoding: 216 216 67
Width: 798
VWidth: 1024
Flags: W
HStem: -0 138<139.901 179 356 520.099> 390 138<139.901 290 467 520.099>
VStem: 0 138<139.901 388.099> 372 138<540 678> 522 138<139.901 388.099>
DStem2: 150 -102 288 -102 0.273744 0.961803<37.7766 106.042 287.224 511.531 692.712 810.977>
LayerCount: 2
Fore
SplineSet
0 165 m 2
 0 363 l 2
 0 454 74 528 165 528 c 2
 329 528 l 1
 372 678 l 1
 510 678 l 1
 467 528 l 1
 495 528 l 2
 586 528 660 454 660 363 c 2
 660 165 l 2
 660 74 586 0 495 0 c 2
 317 -0 l 1
 288 -102 l 1
 150 -102 l 1
 179 0 l 1
 165 0 l 2
 74 0 0 74 0 165 c 2
138 165 m 2
 138 150 150 138 165 138 c 2
 218 138 l 1
 290 390 l 1
 165 390 l 2
 150 390 138 378 138 363 c 2
 138 165 l 2
356 138 m 1
 495 138 l 2
 510 138 522 150 522 165 c 2
 522 363 l 2
 522 378 510 390 495 390 c 2
 428 390 l 1
 356 138 l 1
EndSplineSet
Validated: 1
EndChar

StartChar: Ugrave
Encoding: 217 217 68
Width: 798
VWidth: 1024
Flags: W
HStem: 0 138<139.901 520.099> 508 20G<0 138 522 660>
VStem: 0 138<139.901 528> 522 138<139.901 528>
DStem2: 309 786 201 732 0.707107 -0.707107<0 173.948>
LayerCount: 2
Fore
SplineSet
201 786 m 1
 309 786 l 25
 459 636 l 1
 459 582 l 25
 351 582 l 1
 201 732 l 25
 201 786 l 1
0 528 m 1
 138 528 l 1
 138 165 l 1
 138 150 150 138 165 138 c 1
 495 138 l 1
 510 138 522 150 522 165 c 1
 522 528 l 1
 660 528 l 1
 660 165 l 1
 660 74 586 0 495 0 c 1
 165 0 l 1
 74 0 0 74 0 165 c 1
 0 528 l 1
EndSplineSet
Validated: 1
EndChar

StartChar: Uacute
Encoding: 218 218 69
Width: 798
VWidth: 1024
Flags: W
HStem: 0 138<139.901 520.099> 508 20G<0 138 522 660>
VStem: 0 138<139.901 528> 522 138<139.901 528>
DStem2: 201 636 309 582 0.707107 0.707107<38.1838 212.132>
LayerCount: 2
Fore
SplineSet
201 582 m 25
 201 636 l 1
 351 786 l 25
 459 786 l 1
 459 732 l 25
 309 582 l 1
 201 582 l 25
0 528 m 1
 138 528 l 1
 138 165 l 1
 138 150 150 138 165 138 c 1
 495 138 l 1
 510 138 522 150 522 165 c 1
 522 528 l 1
 660 528 l 1
 660 165 l 1
 660 74 586 0 495 0 c 1
 165 0 l 1
 74 0 0 74 0 165 c 1
 0 528 l 1
EndSplineSet
Validated: 1
EndChar

StartChar: Ucircumflex
Encoding: 219 219 70
Width: 798
VWidth: 1024
Flags: W
HStem: 0 138<139.901 520.099> 508 20G<0 138 522 660> 678 108<276 384>
VStem: 0 138<139.901 528> 522 138<139.901 528>
LayerCount: 2
Fore
SplineSet
126 582 m 25
 126 636 l 1
 276 786 l 1
 384 786 l 1
 534 636 l 1
 534 582 l 25
 426 582 l 1
 330 678 l 1
 234 582 l 1
 126 582 l 25
0 528 m 1
 138 528 l 1
 138 165 l 1
 138 150 150 138 165 138 c 1
 495 138 l 1
 510 138 522 150 522 165 c 1
 522 528 l 1
 660 528 l 1
 660 165 l 1
 660 74 586 0 495 0 c 1
 165 0 l 1
 74 0 0 74 0 165 c 1
 0 528 l 1
EndSplineSet
Validated: 1
EndChar

StartChar: Udieresis
Encoding: 220 220 71
Width: 798
VWidth: 1024
Flags: W
HStem: 0 138<139.901 520.099> 508 20G<0 138 522 660> 630 156<102 264 396 558>
VStem: 0 138<139.901 528> 102 162<630 786> 396 162<630 786> 522 138<139.901 528>
LayerCount: 2
Fore
SplineSet
396 630 m 1xe4
 396 786 l 1
 558 786 l 1
 558 630 l 1
 396 630 l 1xe4
102 630 m 1xe8
 102 786 l 1
 264 786 l 1
 264 630 l 1
 102 630 l 1xe8
0 528 m 1xf2
 138 528 l 1
 138 165 l 1
 138 150 150 138 165 138 c 1
 495 138 l 1
 510 138 522 150 522 165 c 1
 522 528 l 1
 660 528 l 1
 660 165 l 1
 660 74 586 0 495 0 c 1
 165 0 l 1
 74 0 0 74 0 165 c 1
 0 528 l 1xf2
EndSplineSet
Validated: 1
EndChar

StartChar: Yacute
Encoding: 221 221 72
Width: 798
VWidth: 1024
Flags: W
HStem: 0 138<0 520.099> 198 138<139.901 521.581> 508 20G<0 138 522 660>
VStem: 0 138<337.901 528> 522 138<139.901 197.391 336.609 528>
DStem2: 201 636 309 582 0.707107 0.707107<38.1838 212.132>
LayerCount: 2
Fore
SplineSet
201 582 m 25
 201 636 l 1
 351 786 l 25
 459 786 l 1
 459 732 l 25
 309 582 l 1
 201 582 l 25
0 0 m 1
 0 138 l 17
 495 138 l 1
 510 138 522 150 522 165 c 1
 522 171 l 1
 522 186 510 198 495 198 c 1
 165 198 l 1
 74 198 0 272 0 363 c 1
 0 528 l 9
 138 528 l 1
 138 363 l 1
 138 348 150 336 165 336 c 1
 495 336 l 1
 510 336 522 348 522 363 c 9
 522 528 l 1
 660 528 l 1
 660 363 l 1
 660 327 649 294 629 267 c 1
 649 240 660 207 660 171 c 9
 660 165 l 17
 660 74 586 0 495 0 c 1
 0 0 l 1
EndSplineSet
Validated: 1
EndChar

StartChar: exclamdown
Encoding: 161 161 73
Width: 276
VWidth: 1024
Flags: W
HStem: 0 21G<0 138> 390 138<0 138>
VStem: 0 138<0 330 390 528>
LayerCount: 2
Fore
SplineSet
0 0 m 1
 0 330 l 9
 138 330 l 1
 138 0 l 1
 0 0 l 1
0 390 m 1
 0 528 l 1
 138 528 l 1
 138 390 l 1
 0 390 l 1
EndSplineSet
Validated: 1
EndChar

StartChar: question
Encoding: 63 63 74
Width: 798
VWidth: 1024
Flags: W
HStem: -192 138<0 138> 0 21G<0 138> 198 138<138 520.099> 390 138<0 520.099>
VStem: -0 138<-192 -54 0 198> 522 138<337.16 388.84>
LayerCount: 2
Fore
SplineSet
0 -192 m 1
 0 -54 l 1
 138 -54 l 1
 138 -192 l 1
 0 -192 l 1
-0 0 m 1
 0 336 l 1
 495 336 l 1
 510 336 522 348 522 363 c 0
 522 378 510 390 495 390 c 1
 0 390 l 9
 0 528 l 17
 495 528 l 1
 586 528 660 454 660 363 c 0
 660 272 586 198 495 198 c 1
 138 198 l 1
 138 0 l 1
 -0 0 l 1
EndSplineSet
Validated: 1
EndChar

StartChar: questiondown
Encoding: 191 191 75
Width: 798
VWidth: 1024
Flags: W
HStem: -192 138<0 520.099> 0 138<138 520.099> 390 138<0 138>
VStem: 0 138<138 336 390 528> 522 138<-52.8398 -1.16017>
LayerCount: 2
Fore
SplineSet
0 390 m 1
 0 528 l 1
 138 528 l 1
 138 390 l 1
 0 390 l 1
0 -192 m 13
 0 -54 l 17
 495 -54 l 1
 510 -54 522 -42 522 -27 c 0
 522 -12 510 0 495 0 c 1
 0 0 l 1
 0 336 l 1
 138 336 l 1
 138 138 l 1
 495 138 l 1
 586 138 660 64 660 -27 c 0
 660 -118 586 -192 495 -192 c 1
 0 -192 l 13
EndSplineSet
Validated: 1
EndChar

StartChar: parenleft
Encoding: 40 40 76
Width: 348
VWidth: 1024
Flags: W
HStem: 0 138<139.901 210> 390 138<139.901 210>
VStem: 0 138<139.901 388.099>
LayerCount: 2
Fore
SplineSet
0 165 m 1
 0 363 l 1
 0 454 74 528 165 528 c 1
 210 528 l 1
 210 390 l 17
 165 390 l 1
 150 390 138 378 138 363 c 1
 138 165 l 1
 138 150 150 138 165 138 c 1
 210 138 l 1
 210 0 l 17
 165 0 l 1
 74 0 0 74 0 165 c 1
EndSplineSet
Validated: 1
EndChar

StartChar: parenright
Encoding: 41 41 77
Width: 348
VWidth: 1024
Flags: W
HStem: 0 138<0 70.0985> 390 138<0 70.0985>
VStem: 72 138<139.901 388.099>
LayerCount: 2
Fore
SplineSet
0 0 m 9
 0 138 l 1
 45 138 l 1
 60 138 72 150 72 165 c 1
 72 363 l 1
 72 378 60 390 45 390 c 1
 0 390 l 9
 0 528 l 1
 45 528 l 1
 136 528 210 454 210 363 c 1
 210 165 l 1
 210 74 136 0 45 0 c 1
 0 0 l 9
EndSplineSet
Validated: 1
EndChar

StartChar: bracketleft
Encoding: 91 91 78
Width: 348
VWidth: 1024
Flags: W
HStem: 0 138<138 210> 390 138<138 210>
VStem: 0 210<0 138 390 528> 0 138<138 390>
LayerCount: 2
Fore
SplineSet
0 0 m 1xe0
 0 528 l 1
 210 528 l 1
 210 390 l 1xe0
 138 390 l 1
 138 138 l 1xd0
 210 138 l 1
 210 0 l 1
 0 0 l 1xe0
EndSplineSet
Validated: 1
EndChar

StartChar: bracketright
Encoding: 93 93 79
Width: 348
VWidth: 1024
Flags: W
HStem: 0 138<0 72> 390 138<0 72>
VStem: 0 210<0 138 390 528> 72 138<138 390>
LayerCount: 2
Fore
SplineSet
0 0 m 1xe0
 0 138 l 1xe0
 72 138 l 1
 72 390 l 1xd0
 0 390 l 1
 0 528 l 1
 210 528 l 1
 210 0 l 1
 0 0 l 1xe0
EndSplineSet
Validated: 1
EndChar

StartChar: germandbls
Encoding: 223 223 80
Width: 798
VWidth: 1024
Flags: W
HStem: 0 138<198 520.099> 192 138<198 521.581> 390 138<139.901 520.099>
VStem: 0 138<-180 388.099> 522 138<139.16 191.486 330.609 388.099>
LayerCount: 2
Fore
SplineSet
0 -180 m 1
 0 363 l 1
 0 454 74 528 165 528 c 1
 495 528 l 1
 586 528 660 454 660 363 c 9
 660 357 l 17
 660 321 649 288 629 261 c 1
 649 234 660 201 660 165 c 1
 660 74 586 0 495 0 c 1
 198 0 l 1
 198 138 l 17
 495 138 l 1
 510 138 522 150 522 165 c 0
 522 180 510 192 495 192 c 1
 198 192 l 9
 198 330 l 1
 495 330 l 1
 510 330 522 342 522 357 c 1
 522 363 l 1
 522 378 510 390 495 390 c 1
 165 390 l 1
 150 390 138 378 138 363 c 1
 138 -180 l 1
 0 -180 l 1
EndSplineSet
Validated: 1
EndChar

StartChar: a
Encoding: 97 97 81
Width: 798
VWidth: 1024
Flags: W
HStem: 0 138<139.901 520.099> 192 138<139.901 462> 390 138<0 520.099>
VStem: 0 138<139.16 190.84> 522 138<139.901 388.099>
LayerCount: 2
Fore
SplineSet
0 390 m 1
 0 528 l 1
 495 528 l 1
 586 528 660 454 660 363 c 1
 660 165 l 5
 660 74 586 0 495 0 c 5
 165 0 l 5
 74 0 0 74 0 165 c 0
 0 256 74 330 165 330 c 1
 462 330 l 9
 462 192 l 17
 165 192 l 1
 150 192 138 180 138 165 c 0
 138 150 150 138 165 138 c 5
 495 138 l 5
 510 138 522 150 522 165 c 5
 522 363 l 1
 522 378 510 390 495 390 c 1
 0 390 l 1
EndSplineSet
Validated: 1
EndChar

StartChar: b
Encoding: 98 98 82
Width: 798
VWidth: 1024
Flags: W
HStem: 0 138<139.901 520.099> 192 138<198 520.099> 508 20G<0 138>
VStem: 0 138<139.901 528> 522 138<139.16 190.84>
LayerCount: 2
Fore
SplineSet
0 528 m 9
 138 528 l 17
 138 165 l 1
 138 150 150 138 165 138 c 1
 495 138 l 1
 510 138 522 150 522 165 c 0
 522 180 510 192 495 192 c 1
 198 192 l 9
 198 330 l 17
 495 330 l 1
 586 330 660 256 660 165 c 0
 660 74 586 0 495 0 c 1
 165 0 l 1
 74 0 0 74 0 165 c 1
 0 528 l 9
EndSplineSet
Validated: 1
EndChar

StartChar: c
Encoding: 99 99 83
Width: 798
VWidth: 1024
Flags: W
HStem: 0 138<139.901 660> 390 138<139.901 660>
VStem: 0 138<139.901 388.099>
LayerCount: 2
Fore
SplineSet
0 165 m 1
 0 363 l 1
 0 454 74 528 165 528 c 1
 660 528 l 1
 660 390 l 1
 165 390 l 1
 150 390 138 378 138 363 c 1
 138 165 l 1
 138 150 150 138 165 138 c 1
 660 138 l 9
 660 0 l 1
 165 0 l 1
 74 0 0 74 0 165 c 1
EndSplineSet
Validated: 1
EndChar

StartChar: d
Encoding: 100 100 84
Width: 798
VWidth: 1024
Flags: W
HStem: 0 138<198 520.099> 390 138<139.901 520.099>
VStem: 0 138<0 388.099> 522 138<139.901 388.099>
LayerCount: 2
Fore
SplineSet
0 0 m 1
 0 363 l 1
 0 454 74 528 165 528 c 1
 495 528 l 1
 586 528 660 454 660 363 c 1
 660 165 l 1
 660 74 586 0 495 0 c 1
 198 0 l 9
 198 138 l 1
 495 138 l 1
 510 138 522 150 522 165 c 1
 522 363 l 1
 522 378 510 390 495 390 c 1
 165 390 l 1
 150 390 138 378 138 363 c 1
 138 0 l 1
 0 0 l 1
EndSplineSet
Validated: 1
EndChar

StartChar: e
Encoding: 101 101 85
Width: 798
VWidth: 1024
Flags: W
HStem: 0 138<139.901 660> 198 138<198 520.099> 390 138<139.901 520.099>
VStem: 0 138<139.901 388.099> 522 138<337.16 388.84>
LayerCount: 2
Fore
SplineSet
0 165 m 1
 0 363 l 1
 0 454 74 528 165 528 c 1
 495 528 l 1
 586 528 660 454 660 363 c 0
 660 272 586 198 495 198 c 1
 198 198 l 9
 198 336 l 17
 495 336 l 1
 510 336 522 348 522 363 c 0
 522 378 510 390 495 390 c 1
 165 390 l 1
 150 390 138 378 138 363 c 1
 138 165 l 1
 138 150 150 138 165 138 c 1
 660 138 l 1
 660 0 l 1
 165 0 l 1
 74 0 0 74 0 165 c 1
EndSplineSet
Validated: 1
EndChar

StartChar: f
Encoding: 102 102 86
Width: 798
VWidth: 1024
Flags: W
HStem: 0 21G<0 138> 198 138<138 660> 390 138<139.901 660>
VStem: 0 138<0 198 336 388.099>
LayerCount: 2
Fore
SplineSet
0 0 m 17
 0 363 l 1
 0 454 74 528 165 528 c 1
 660 528 l 9
 660 390 l 17
 165 390 l 1
 150 390 138 378 138 363 c 1
 138 336 l 1
 660 336 l 1
 660 198 l 1
 138 198 l 1
 138 0 l 1
 0 0 l 17
EndSplineSet
Validated: 1
EndChar

StartChar: g
Encoding: 103 103 87
Width: 798
VWidth: 1024
Flags: W
HStem: 0 138<0 520.099> 198 138<139.901 462> 390 138<139.901 520.099>
VStem: 0 138<337.16 388.84> 522 138<139.901 388.099>
LayerCount: 2
Fore
SplineSet
0 0 m 1
 0 138 l 1
 495 138 l 1
 510 138 522 150 522 165 c 1
 522 363 l 1
 522 378 510 390 495 390 c 1
 165 390 l 1
 150 390 138 378 138 363 c 0
 138 348 150 336 165 336 c 1
 462 336 l 9
 462 198 l 17
 165 198 l 1
 74 198 0 272 0 363 c 0
 0 454 74 528 165 528 c 1
 495 528 l 1
 586 528 660 454 660 363 c 1
 660 165 l 1
 660 74 586 0 495 0 c 1
 0 0 l 1
EndSplineSet
Validated: 1
EndChar

StartChar: h
Encoding: 104 104 88
Width: 798
VWidth: 1024
Flags: W
HStem: 0 21G<0 138 522 660> 198 138<138 522> 508 20G<0 138 522 660>
VStem: 0 138<0 198 336 528> 522 138<0 198 336 528>
LayerCount: 2
Fore
SplineSet
0 0 m 1
 0 528 l 9
 138 528 l 17
 138 336 l 1
 522 336 l 1
 522 528 l 1
 660 528 l 17
 660 0 l 1
 522 0 l 1
 522 198 l 1
 138 198 l 1
 138 0 l 1
 0 0 l 1
EndSplineSet
Validated: 1
EndChar

StartChar: i
Encoding: 105 105 89
Width: 276
VWidth: 1024
Flags: W
HStem: 0 21G<0 138> 508 20G<0 138>
VStem: 0 138<0 528>
LayerCount: 2
Fore
SplineSet
0 0 m 17
 0 528 l 1
 138 528 l 1
 138 0 l 1
 0 0 l 17
EndSplineSet
Validated: 1
EndChar

StartChar: j
Encoding: 106 106 90
Width: 474
VWidth: 1024
Flags: W
HStem: 0 138<0 196.099> 508 20G<198 336>
VStem: 198 138<139.901 528>
LayerCount: 2
Fore
SplineSet
0 0 m 9
 0 138 l 17
 171 138 l 1
 186 138 198 150 198 165 c 1
 198 528 l 1
 336 528 l 1
 336 165 l 1
 336 74 262 0 171 0 c 1
 0 0 l 9
EndSplineSet
Validated: 1
EndChar

StartChar: k
Encoding: 107 107 91
Width: 798
VWidth: 1024
Flags: W
HStem: 0 21G<0 138 522 660> 198 138<138 521.581> 508 20G<0 138 522 660>
VStem: 0 138<0 198 336 528> 522 138<0 197.391 336.609 528>
LayerCount: 2
Fore
SplineSet
0 0 m 1
 0 528 l 9
 138 528 l 17
 138 336 l 1
 495 336 l 1
 510 336 522 348 522 363 c 1
 522 528 l 1
 660 528 l 1
 660 363 l 1
 660 327 649 294 629 267 c 1
 649 240 660 207 660 171 c 1
 660 0 l 9
 522 0 l 17
 522 171 l 1
 522 186 510 198 495 198 c 1
 138 198 l 1
 138 0 l 1
 0 0 l 1
EndSplineSet
Validated: 1
EndChar

StartChar: l
Encoding: 108 108 92
Width: 474
VWidth: 1024
Flags: W
HStem: 0 138<139.901 336> 508 20G<0 138>
VStem: 0 138<139.901 528>
LayerCount: 2
Fore
SplineSet
0 165 m 1
 0 528 l 1
 138 528 l 1
 138 165 l 1
 138 150 150 138 165 138 c 1
 336 138 l 9
 336 0 l 17
 165 0 l 1
 74 0 0 74 0 165 c 1
EndSplineSet
Validated: 1
EndChar

StartChar: m
Encoding: 109 109 93
Width: 756
VWidth: 1024
Flags: W
HStem: 0 21G<0 138 240 378 480 618> 390 138<139.95 238.945 379.055 478.05>
VStem: 0 138<0 384.986> 240 138<0 386.759> 480 138<0 384.986>
CounterMasks: 1 38
LayerCount: 2
Fore
SplineSet
0 0 m 1
 0 363 l 1
 0 459 69 528 189 528 c 0
 238 528 278 517 309 497 c 1
 340 517 380 528 429 528 c 0
 549 528 618 459 618 363 c 1
 618 0 l 1
 480 0 l 1
 480 363 l 1
 480 378 468 390 429 390 c 0
 390 390 378 378 378 363 c 1
 378 0 l 1
 240 0 l 1
 240 363 l 1
 240 378 228 390 189 390 c 0
 150 390 138 378 138 363 c 1
 138 0 l 1
 0 0 l 1
EndSplineSet
Validated: 1
EndChar

StartChar: n
Encoding: 110 110 94
Width: 798
VWidth: 1024
Flags: W
HStem: 0 21G<0 138 522 660> 390 138<139.901 520.099>
VStem: 0 138<0 388.099> 522 138<0 388.099>
LayerCount: 2
Fore
SplineSet
0 0 m 1
 0 363 l 1
 0 454 74 528 165 528 c 1
 495 528 l 1
 586 528 660 454 660 363 c 1
 660 0 l 1
 522 0 l 1
 522 363 l 1
 522 378 510 390 495 390 c 1
 165 390 l 1
 150 390 138 378 138 363 c 1
 138 0 l 1
 0 0 l 1
EndSplineSet
Validated: 1
EndChar

StartChar: o
Encoding: 111 111 95
Width: 798
VWidth: 1024
Flags: W
HStem: 0 138<139.901 520.099> 390 138<139.901 520.099>
VStem: 0 138<139.901 388.099> 522 138<139.901 388.099>
LayerCount: 2
Fore
SplineSet
138 165 m 1
 138 150 150 138 165 138 c 1
 495 138 l 1
 510 138 522 150 522 165 c 1
 522 363 l 1
 522 378 510 390 495 390 c 1
 165 390 l 1
 150 390 138 378 138 363 c 1
 138 165 l 1
0 165 m 5
 0 363 l 1
 0 454 74 528 165 528 c 1
 495 528 l 1
 586 528 660 454 660 363 c 1
 660 165 l 5
 660 74 586 0 495 0 c 5
 165 0 l 5
 74 0 0 74 0 165 c 5
EndSplineSet
Validated: 1
EndChar

StartChar: p
Encoding: 112 112 96
Width: 798
VWidth: 1024
Flags: W
HStem: 0 21G<0 138> 198 138<198 520.099> 390 138<139.901 520.099>
VStem: 0 138<0 388.099> 522 138<337.16 388.84>
LayerCount: 2
Fore
SplineSet
0 0 m 17
 0 363 l 1
 0 454 74 528 165 528 c 1
 495 528 l 1
 586 528 660 454 660 363 c 0
 660 272 586 198 495 198 c 1
 198 198 l 9
 198 336 l 17
 495 336 l 1
 510 336 522 348 522 363 c 0
 522 378 510 390 495 390 c 1
 165 390 l 1
 150 390 138 378 138 363 c 1
 138 0 l 9
 0 0 l 17
EndSplineSet
Validated: 1
EndChar

StartChar: q
Encoding: 113 113 97
Width: 798
VWidth: 1024
Flags: W
HStem: 0 138<139.901 324 462 520.099> 390 138<139.901 520.099>
VStem: 0 138<139.901 388.099> 324 138<-126 0 138 264> 522 138<139.901 388.099>
LayerCount: 2
Fore
SplineSet
0 165 m 2
 0 363 l 2
 0 454 74 528 165 528 c 2
 495 528 l 2
 586 528 660 454 660 363 c 2
 660 165 l 2
 660 74 586 0 495 0 c 2
 462 -0 l 1
 462 -126 l 1
 324 -126 l 1
 324 0 l 1
 165 0 l 2
 74 0 0 74 0 165 c 2
138 165 m 2
 138 150 150 138 165 138 c 2
 324 138 l 1
 324 264 l 1
 462 264 l 1
 462 138 l 1
 495 138 l 2
 510 138 522 150 522 165 c 2
 522 363 l 2
 522 378 510 390 495 390 c 2
 165 390 l 2
 150 390 138 378 138 363 c 2
 138 165 l 2
EndSplineSet
Validated: 1
EndChar

StartChar: r
Encoding: 114 114 98
Width: 798
VWidth: 1024
Flags: W
HStem: 0 21G<0 138 522 660> 198 138<198 521.581> 390 138<138 520.099>
VStem: 0 138<0 390> 522 138<0 197.391 336.514 388.84>
LayerCount: 2
Fore
SplineSet
0 0 m 1
 0 528 l 1
 495 528 l 1
 586 528 660 454 660 363 c 0
 660 327 649 294 629 267 c 1
 649 240 660 207 660 171 c 1
 660 0 l 9
 522 0 l 17
 522 171 l 1
 522 186 510 198 495 198 c 1
 198 198 l 1
 198 336 l 17
 495 336 l 1
 510 336 522 348 522 363 c 0
 522 378 510 390 495 390 c 1
 138 390 l 1
 138 0 l 1
 0 0 l 1
EndSplineSet
Validated: 1
EndChar

StartChar: s
Encoding: 115 115 99
Width: 798
VWidth: 1024
Flags: W
HStem: 0 138<0 520.099> 198 138<139.901 520.099> 390 138<139.901 660>
VStem: 0 138<337.16 388.84>
LayerCount: 2
Fore
SplineSet
0 0 m 1
 0 138 l 1
 495 138 l 1
 510 138 522 150 522 165 c 1
 522 171 l 1
 522 186 510 198 495 198 c 1
 165 198 l 1
 74 198 0 272 0 363 c 0
 0 454 74 528 165 528 c 1
 660 528 l 9
 660 390 l 17
 165 390 l 1
 150 390 138 378 138 363 c 0
 138 348 150 336 165 336 c 1
 495 336 l 1
 586 336 660 262 660 171 c 1
 660 165 l 1
 660 74 586 0 495 0 c 1
 0 0 l 1
EndSplineSet
Validated: 1
EndChar

StartChar: t
Encoding: 116 116 100
Width: 798
VWidth: 1024
Flags: W
HStem: 0 21G<261 399> 390 138<0 261 399 660>
VStem: 261 138<0 390>
LayerCount: 2
Fore
SplineSet
0 390 m 1
 0 528 l 17
 660 528 l 1
 660 390 l 1
 399 390 l 1
 399 0 l 1
 261 0 l 1
 261 390 l 1
 0 390 l 1
EndSplineSet
Validated: 1
EndChar

StartChar: u
Encoding: 117 117 101
Width: 798
VWidth: 1024
Flags: W
HStem: 0 138<139.901 520.099> 508 20G<0 138 522 660>
VStem: 0 138<139.901 528> 522 138<139.901 528>
LayerCount: 2
Fore
SplineSet
0 528 m 1
 138 528 l 1
 138 165 l 1
 138 150 150 138 165 138 c 1
 495 138 l 1
 510 138 522 150 522 165 c 1
 522 528 l 1
 660 528 l 1
 660 165 l 1
 660 74 586 0 495 0 c 1
 165 0 l 1
 74 0 0 74 0 165 c 1
 0 528 l 1
EndSplineSet
Validated: 1
EndChar

StartChar: v
Encoding: 118 118 102
Width: 798
VWidth: 1024
Flags: W
HStem: 0 138<304.16 355.84> 390 138<0 163.099 496.901 660>
VStem: 165 138<139.901 388.099> 357 138<139.901 388.099>
LayerCount: 2
Fore
SplineSet
0 390 m 9
 0 528 l 17
 138 528 l 1
 229 528 303 454 303 363 c 1
 303 165 l 1
 303 150 315 138 330 138 c 0
 345 138 357 150 357 165 c 1
 357 363 l 1
 357 454 431 528 522 528 c 1
 660 528 l 9
 660 390 l 17
 522 390 l 1
 507 390 495 378 495 363 c 1
 495 165 l 1
 495 74 421 0 330 0 c 0
 239 0 165 74 165 165 c 1
 165 363 l 1
 165 378 153 390 138 390 c 1
 0 390 l 9
EndSplineSet
Validated: 1
EndChar

StartChar: w
Encoding: 119 119 103
Width: 756
VWidth: 1024
Flags: W
HStem: 0 138<139.95 238.945 379.055 478.05> 508 20G<0 138 240 378 480 618>
VStem: 0 138<143.014 528> 240 138<141.241 528> 480 138<143.014 528>
CounterMasks: 1 38
LayerCount: 2
Fore
SplineSet
0 528 m 1
 138 528 l 1
 138 165 l 1
 138 150 150 138 189 138 c 0
 228 138 240 150 240 165 c 1
 240 528 l 1
 378 528 l 1
 378 165 l 1
 378 150 390 138 429 138 c 0
 468 138 480 150 480 165 c 1
 480 528 l 1
 618 528 l 1
 618 165 l 1
 618 69 549 0 429 0 c 0
 380 0 340 11 309 31 c 1
 278 11 238 0 189 0 c 0
 69 0 0 69 0 165 c 1
 0 528 l 1
EndSplineSet
Validated: 1
EndChar

StartChar: x
Encoding: 120 120 104
Width: 798
VWidth: 1024
Flags: W
HStem: 0 21G<0 138 522 660> 198 138<138.419 521.581> 508 20G<0 138 522 660>
VStem: 0 138<0 197.391 336.609 528> 522 138<0 197.391 336.609 528>
LayerCount: 2
Fore
SplineSet
0 0 m 17
 0 171 l 1
 0 207 11 240 31 267 c 1
 11 294 0 327 0 363 c 1
 0 528 l 1
 138 528 l 1
 138 363 l 1
 138 348 150 336 165 336 c 1
 495 336 l 1
 510 336 522 348 522 363 c 1
 522 528 l 1
 660 528 l 1
 660 363 l 1
 660 327 649 294 629 267 c 1
 649 240 660 207 660 171 c 1
 660 0 l 9
 522 0 l 17
 522 171 l 1
 522 186 510 198 495 198 c 1
 165 198 l 1
 150 198 138 186 138 171 c 1
 138 0 l 9
 0 0 l 17
EndSplineSet
Validated: 1
EndChar

StartChar: y
Encoding: 121 121 105
Width: 798
VWidth: 1024
Flags: W
HStem: 0 138<0 520.099> 198 138<139.901 521.581> 508 20G<0 138 522 660>
VStem: 0 138<337.901 528> 522 138<139.901 197.391 336.609 528>
LayerCount: 2
Fore
SplineSet
0 0 m 1
 0 138 l 17
 495 138 l 1
 510 138 522 150 522 165 c 1
 522 171 l 1
 522 186 510 198 495 198 c 1
 165 198 l 1
 74 198 0 272 0 363 c 1
 0 528 l 9
 138 528 l 1
 138 363 l 1
 138 348 150 336 165 336 c 1
 495 336 l 1
 510 336 522 348 522 363 c 9
 522 528 l 1
 660 528 l 1
 660 363 l 1
 660 327 649 294 629 267 c 1
 649 240 660 207 660 171 c 9
 660 165 l 17
 660 74 586 0 495 0 c 1
 0 0 l 1
EndSplineSet
Validated: 1
EndChar

StartChar: z
Encoding: 122 122 106
Width: 798
VWidth: 1024
Flags: W
HStem: 0 138<139.901 660> 198 138<139.901 520.099> 390 138<0 520.099>
VStem: 522 138<337.16 388.84>
LayerCount: 2
Fore
SplineSet
0 390 m 9
 0 528 l 17
 495 528 l 1
 586 528 660 454 660 363 c 0
 660 272 586 198 495 198 c 1
 165 198 l 1
 150 198 138 186 138 171 c 1
 138 165 l 1
 138 150 150 138 165 138 c 1
 660 138 l 1
 660 0 l 1
 165 0 l 1
 74 0 0 74 0 165 c 1
 0 171 l 1
 0 262 74 336 165 336 c 1
 495 336 l 1
 510 336 522 348 522 363 c 0
 522 378 510 390 495 390 c 1
 0 390 l 9
EndSplineSet
Validated: 1
EndChar

StartChar: bar
Encoding: 124 124 107
Width: 276
VWidth: 1024
Flags: W
VStem: 0 138<-192 588>
LayerCount: 2
Fore
SplineSet
0 -192 m 17
 0 588 l 1
 138 588 l 1
 138 -192 l 1
 0 -192 l 17
EndSplineSet
Validated: 1
EndChar

StartChar: colon
Encoding: 58 58 108
Width: 276
VWidth: 1024
Flags: W
HStem: 0 138<0 138> 198 138<0 138>
VStem: 0 138<0 138 198 336>
LayerCount: 2
Fore
SplineSet
0 198 m 1
 0 336 l 1
 138 336 l 1
 138 198 l 1
 0 198 l 1
0 0 m 1
 0 138 l 1
 138 138 l 1
 138 0 l 1
 0 0 l 1
EndSplineSet
Validated: 1
EndChar

StartChar: semicolon
Encoding: 59 59 109
Width: 276
VWidth: 1024
Flags: W
HStem: 198 138<0 138>
VStem: 0 138<-132 138 198 336>
LayerCount: 2
Fore
SplineSet
0 198 m 1
 0 336 l 1
 138 336 l 1
 138 198 l 1
 0 198 l 1
0 -132 m 1
 0 138 l 1
 138 138 l 1
 138 -132 l 1
 0 -132 l 1
EndSplineSet
Validated: 1
EndChar

StartChar: comma
Encoding: 44 44 110
Width: 276
VWidth: 1024
Flags: W
HStem: -132 270<0 138>
VStem: 0 138<-132 138>
LayerCount: 2
Fore
SplineSet
0 -132 m 1
 0 138 l 1
 138 138 l 1
 138 -132 l 1
 0 -132 l 1
EndSplineSet
Validated: 1
EndChar

StartChar: slash
Encoding: 47 47 111
Width: 498
VWidth: 1024
Flags: W
VStem: 0 138<-192 -54> 222 138<450 588>
DStem2: 0 -192 138 -192 0.273744 0.961803<37.7766 810.977>
LayerCount: 2
Fore
SplineSet
0 -192 m 17
 222 588 l 1
 360 588 l 1
 138 -192 l 1
 0 -192 l 17
EndSplineSet
Validated: 1
EndChar

StartChar: backslash
Encoding: 92 92 112
Width: 498
VWidth: 1024
Flags: W
VStem: 0 138<450 588> 222 138<-192 -54>
DStem2: 138 588 0 588 0.273744 -0.961803<0 773.201>
LayerCount: 2
Fore
SplineSet
0 588 m 1
 138 588 l 1
 360 -192 l 9
 222 -192 l 1
 0 588 l 1
EndSplineSet
Validated: 1
EndChar

StartChar: hyphen
Encoding: 45 45 113
Width: 528
VWidth: 1024
Flags: W
HStem: 198 138<0 390>
LayerCount: 2
Fore
SplineSet
0 198 m 1
 0 336 l 1
 390 336 l 1
 390 198 l 1
 0 198 l 1
EndSplineSet
Validated: 1
EndChar

StartChar: ydieresis
Encoding: 255 255 116
Width: 798
VWidth: 1024
Flags: W
HStem: 0 138<0 520.099> 198 138<139.901 521.581> 508 20G<0 138 522 660> 630 156<102 264 396 558>
VStem: 0 138<337.901 528> 102 162<630 786> 396 162<630 786> 522 138<139.901 197.391 336.609 528>
LayerCount: 2
Fore
SplineSet
396 630 m 1xf2
 396 786 l 1
 558 786 l 1
 558 630 l 1
 396 630 l 1xf2
102 630 m 1xf4
 102 786 l 1
 264 786 l 1
 264 630 l 1
 102 630 l 1xf4
0 0 m 1xf9
 0 138 l 17
 495 138 l 1
 510 138 522 150 522 165 c 1
 522 171 l 1
 522 186 510 198 495 198 c 1
 165 198 l 1
 74 198 0 272 0 363 c 1
 0 528 l 9
 138 528 l 1
 138 363 l 1
 138 348 150 336 165 336 c 1
 495 336 l 1
 510 336 522 348 522 363 c 9
 522 528 l 1
 660 528 l 1
 660 363 l 1
 660 327 649 294 629 267 c 1
 649 240 660 207 660 171 c 9
 660 165 l 17
 660 74 586 0 495 0 c 1
 0 0 l 1xf9
EndSplineSet
Validated: 1
EndChar

StartChar: oe
Encoding: 339 339 117
Width: 1320
VWidth: 1024
Flags: W
HStem: 0 138<139.901 521.391 660.609 1182> 198 138<720 1042.1> 390 138<139.901 521.391 660.609 1042.1>
VStem: 0 138<139.901 388.099> 522 138<138.419 389.581> 1044 138<337.16 388.84>
CounterMasks: 1 1c
LayerCount: 2
Fore
SplineSet
0 165 m 2
 0 363 l 2
 0 454 74 528 165 528 c 2
 495 528 l 2
 531 528 564 517 591 497 c 1
 618 517 651 528 687 528 c 2
 1017 528 l 2
 1108 528 1182 454 1182 363 c 0
 1182 272 1108 198 1017 198 c 2
 720 198 l 1
 720 336 l 1
 1017 336 l 2
 1032 336 1044 348 1044 363 c 0
 1044 378 1032 390 1017 390 c 2
 687 390 l 2
 672 390 660 378 660 363 c 2
 660 165 l 2
 660 150 672 138 687 138 c 2
 1182 138 l 1
 1182 0 l 1
 687 0 l 2
 651 0 618 11 591 31 c 1
 564 11 531 -0 495 0 c 2
 165 0 l 2
 74 0 0 74 0 165 c 2
138 165 m 2
 138 150 150 138 165 138 c 2
 495 138 l 2
 510 138 522 150 522 165 c 2
 522 363 l 2
 522 378 510 390 495 390 c 2
 165 390 l 2
 150 390 138 378 138 363 c 2
 138 165 l 2
EndSplineSet
Validated: 1
EndChar

StartChar: OE
Encoding: 338 338 118
Width: 1320
VWidth: 1024
Flags: W
HStem: 0 138<139.901 521.391 660.609 1182> 198 138<720 1042.1> 390 138<139.901 521.391 660.609 1042.1>
VStem: 0 138<139.901 388.099> 522 138<138.419 389.581> 1044 138<337.16 388.84>
CounterMasks: 1 1c
LayerCount: 2
Fore
SplineSet
0 165 m 2
 0 363 l 2
 0 454 74 528 165 528 c 2
 495 528 l 2
 531 528 564 517 591 497 c 1
 618 517 651 528 687 528 c 2
 1017 528 l 2
 1108 528 1182 454 1182 363 c 0
 1182 272 1108 198 1017 198 c 2
 720 198 l 1
 720 336 l 1
 1017 336 l 2
 1032 336 1044 348 1044 363 c 0
 1044 378 1032 390 1017 390 c 2
 687 390 l 2
 672 390 660 378 660 363 c 2
 660 165 l 2
 660 150 672 138 687 138 c 2
 1182 138 l 1
 1182 0 l 1
 687 0 l 2
 651 0 618 11 591 31 c 1
 564 11 531 -0 495 0 c 2
 165 0 l 2
 74 0 0 74 0 165 c 2
138 165 m 2
 138 150 150 138 165 138 c 2
 495 138 l 2
 510 138 522 150 522 165 c 2
 522 363 l 2
 522 378 510 390 495 390 c 2
 165 390 l 2
 150 390 138 378 138 363 c 2
 138 165 l 2
EndSplineSet
Validated: 1
EndChar

StartChar: plus
Encoding: 43 43 119
Width: 528
VWidth: 1024
Flags: W
HStem: 198 138<0 126 264 390>
VStem: 126 138<72 198 336 462>
LayerCount: 2
Fore
SplineSet
0 198 m 1
 0 336 l 1
 126 336 l 1
 126 462 l 1
 264 462 l 1
 264 336 l 1
 390 336 l 1
 390 198 l 1
 264 198 l 1
 264 72 l 1
 126 72 l 1
 126 198 l 1
 0 198 l 1
EndSplineSet
Validated: 1
EndChar

StartChar: ampersand
Encoding: 38 38 120
Width: 798
VWidth: 1024
Flags: W
HStem: 0 138<139.901 460.099> 192 138<138.419 462 600 660> 390 138<139.901 660>
VStem: 0 138<139.16 191.486 330.609 388.099>
LayerCount: 2
Fore
SplineSet
0 165 m 1
 0 201 11 234 31 261 c 1
 11 288 0 321 0 357 c 9
 0 363 l 17
 0 454 74 528 165 528 c 1
 660 528 l 1
 660 390 l 17
 165 390 l 1
 150 390 138 378 138 363 c 1
 138 357 l 1
 138 342 150 330 165 330 c 1
 660 330 l 9
 660 192 l 1
 600 192 l 1
 600 165 l 17
 600 74 526 0 435 0 c 1
 165 0 l 1
 74 0 0 74 0 165 c 1
138 165 m 0
 138 150 150 138 165 138 c 1
 435 138 l 1
 450 138 462 150 462 165 c 9
 462 192 l 1
 165 192 l 1
 150 192 138 180 138 165 c 0
EndSplineSet
Validated: 1
EndChar

StartChar: less
Encoding: 60 60 121
Width: 342
VWidth: 1024
Flags: W
VStem: 0 108<210 318>
LayerCount: 2
Fore
SplineSet
0 210 m 1
 0 318 l 1
 150 468 l 1
 204 468 l 25
 204 360 l 1
 108 264 l 1
 204 168 l 1
 204 60 l 25
 150 60 l 1
 0 210 l 1
EndSplineSet
Validated: 1
EndChar

StartChar: equal
Encoding: 61 61 122
Width: 528
VWidth: 1024
Flags: W
HStem: -0 138<0 390> 198 138<0 390>
VStem: 0 390<0 138 198 336>
LayerCount: 2
Fore
SplineSet
0 -0 m 1
 0 138 l 1
 390 138 l 1
 390 -0 l 1
 0 -0 l 1
0 198 m 1
 0 336 l 1
 390 336 l 1
 390 198 l 1
 0 198 l 1
EndSplineSet
Validated: 1
EndChar

StartChar: braceleft
Encoding: 123 123 123
Width: 414
VWidth: 1024
Flags: W
HStem: 0 138<204 276> 390 138<204 276>
VStem: 0 204<204 360> 66 210<0 138 390 528> 66 138<138 204 360 390>
LayerCount: 2
Fore
SplineSet
0 204 m 1xe0
 0 360 l 1xe0
 66 360 l 1xc8
 66 528 l 1
 276 528 l 1
 276 390 l 1xd0
 204 390 l 1
 204 138 l 1xc8
 276 138 l 1
 276 0 l 1
 66 0 l 1xd0
 66 204 l 1xc8
 0 204 l 1xe0
EndSplineSet
Validated: 1
EndChar

StartChar: braceright
Encoding: 125 125 124
Width: 414
VWidth: 1024
Flags: W
HStem: 0 138<0 72> 390 138<0 72>
VStem: 0 210<0 138 390 528> 72 204<204 360> 72 138<138 204 360 390>
LayerCount: 2
Fore
SplineSet
0 0 m 1xe0
 0 138 l 1xe0
 72 138 l 1
 72 390 l 1xc8
 0 390 l 1
 0 528 l 1
 210 528 l 1xe0
 210 360 l 1xc8
 276 360 l 1
 276 204 l 1xd0
 210 204 l 1xc8
 210 0 l 1
 0 0 l 1xe0
EndSplineSet
Validated: 1
EndChar

StartChar: greater
Encoding: 62 62 125
Width: 342
VWidth: 1024
Flags: W
VStem: 96 108<210 318>
LayerCount: 2
Fore
SplineSet
0 60 m 25
 0 168 l 1
 96 264 l 1
 0 360 l 1
 0 468 l 25
 54 468 l 1
 204 318 l 1
 204 210 l 1
 54 60 l 1
 0 60 l 25
EndSplineSet
Validated: 1
EndChar

StartChar: oslash
Encoding: 248 248 126
Width: 798
VWidth: 1024
Flags: W
HStem: -0 138<139.901 179 356 520.099> 390 138<139.901 290 467 520.099>
VStem: 0 138<139.901 388.099> 372 138<540 678> 522 138<139.901 388.099>
DStem2: 150 -102 288 -102 0.273744 0.961803<37.7766 106.042 287.224 511.531 692.712 810.977>
LayerCount: 2
Fore
SplineSet
0 165 m 2
 0 363 l 2
 0 454 74 528 165 528 c 2
 329 528 l 1
 372 678 l 1
 510 678 l 1
 467 528 l 1
 495 528 l 2
 586 528 660 454 660 363 c 2
 660 165 l 2
 660 74 586 0 495 0 c 2
 317 -0 l 1
 288 -102 l 1
 150 -102 l 1
 179 0 l 1
 165 0 l 2
 74 0 0 74 0 165 c 2
138 165 m 2
 138 150 150 138 165 138 c 2
 218 138 l 1
 290 390 l 1
 165 390 l 2
 150 390 138 378 138 363 c 2
 138 165 l 2
356 138 m 1
 495 138 l 2
 510 138 522 150 522 165 c 2
 522 363 l 2
 522 378 510 390 495 390 c 2
 428 390 l 1
 356 138 l 1
EndSplineSet
Validated: 1
EndChar

StartChar: asciicircum
Encoding: 94 94 127
Width: 546
VWidth: 1024
Flags: W
HStem: 678 108<150 258>
LayerCount: 2
Fore
SplineSet
0 582 m 25
 0 636 l 1
 150 786 l 1
 258 786 l 1
 408 636 l 1
 408 582 l 25
 300 582 l 1
 204 678 l 1
 108 582 l 1
 0 582 l 25
EndSplineSet
Validated: 1
EndChar

StartChar: asciitilde
Encoding: 126 126 128
Width: 690
VWidth: 1024
Flags: W
HStem: 264 108<150 258>
LayerCount: 2
Fore
SplineSet
0 168 m 25
 0 222 l 1
 150 372 l 1
 258 372 l 1
 345 285 l 1
 420 372 l 1
 552 372 l 1
 378 168 l 1
 300 168 l 1
 204 264 l 1
 108 168 l 1
 0 168 l 25
EndSplineSet
Validated: 1
EndChar

StartChar: ntilde
Encoding: 241 241 129
Width: 798
VWidth: 1024
Flags: W
HStem: 0 21G<0 138 522 660> 390 138<139.901 520.099> 678 108<204 312>
VStem: 0 138<0 388.099> 522 138<0 388.099>
LayerCount: 2
Fore
SplineSet
54 582 m 25
 54 636 l 1
 204 786 l 1
 312 786 l 1
 399 699 l 1
 474 786 l 1
 606 786 l 1
 432 582 l 1
 354 582 l 1
 258 678 l 1
 162 582 l 1
 54 582 l 25
0 0 m 1
 0 363 l 1
 0 454 74 528 165 528 c 1
 495 528 l 1
 586 528 660 454 660 363 c 1
 660 0 l 1
 522 0 l 1
 522 363 l 1
 522 378 510 390 495 390 c 1
 165 390 l 1
 150 390 138 378 138 363 c 1
 138 0 l 1
 0 0 l 1
EndSplineSet
Validated: 1
EndChar

StartChar: ograve
Encoding: 242 242 130
Width: 798
VWidth: 1024
Flags: W
HStem: 0 138<139.901 520.099> 390 138<139.901 520.099>
VStem: 0 138<139.901 388.099> 522 138<139.901 388.099>
DStem2: 309 786 201 732 0.707107 -0.707107<0 173.948>
LayerCount: 2
Fore
SplineSet
201 786 m 1
 309 786 l 25
 459 636 l 1
 459 582 l 25
 351 582 l 1
 201 732 l 25
 201 786 l 1
138 165 m 1
 138 150 150 138 165 138 c 1
 495 138 l 1
 510 138 522 150 522 165 c 1
 522 363 l 1
 522 378 510 390 495 390 c 1
 165 390 l 1
 150 390 138 378 138 363 c 1
 138 165 l 1
0 165 m 1
 0 363 l 1
 0 454 74 528 165 528 c 1
 495 528 l 1
 586 528 660 454 660 363 c 1
 660 165 l 1
 660 74 586 0 495 0 c 1
 165 0 l 1
 74 0 0 74 0 165 c 1
EndSplineSet
Validated: 1
EndChar

StartChar: oacute
Encoding: 243 243 131
Width: 798
VWidth: 1024
Flags: W
HStem: 0 138<139.901 520.099> 390 138<139.901 520.099>
VStem: 0 138<139.901 388.099> 522 138<139.901 388.099>
DStem2: 201 636 309 582 0.707107 0.707107<38.1838 212.132>
LayerCount: 2
Fore
SplineSet
201 582 m 25
 201 636 l 1
 351 786 l 25
 459 786 l 1
 459 732 l 25
 309 582 l 1
 201 582 l 25
138 165 m 1
 138 150 150 138 165 138 c 1
 495 138 l 1
 510 138 522 150 522 165 c 1
 522 363 l 1
 522 378 510 390 495 390 c 1
 165 390 l 1
 150 390 138 378 138 363 c 1
 138 165 l 1
0 165 m 1
 0 363 l 1
 0 454 74 528 165 528 c 1
 495 528 l 1
 586 528 660 454 660 363 c 1
 660 165 l 1
 660 74 586 0 495 0 c 1
 165 0 l 1
 74 0 0 74 0 165 c 1
EndSplineSet
Validated: 1
EndChar

StartChar: ocircumflex
Encoding: 244 244 132
Width: 798
VWidth: 1024
Flags: W
HStem: 0 138<139.901 520.099> 390 138<139.901 520.099> 678 108<276 384>
VStem: 0 138<139.901 388.099> 522 138<139.901 388.099>
LayerCount: 2
Fore
SplineSet
126 582 m 25
 126 636 l 1
 276 786 l 1
 384 786 l 1
 534 636 l 1
 534 582 l 25
 426 582 l 1
 330 678 l 1
 234 582 l 1
 126 582 l 25
138 165 m 1
 138 150 150 138 165 138 c 1
 495 138 l 1
 510 138 522 150 522 165 c 1
 522 363 l 1
 522 378 510 390 495 390 c 1
 165 390 l 1
 150 390 138 378 138 363 c 1
 138 165 l 1
0 165 m 1
 0 363 l 1
 0 454 74 528 165 528 c 1
 495 528 l 1
 586 528 660 454 660 363 c 1
 660 165 l 1
 660 74 586 0 495 0 c 1
 165 0 l 1
 74 0 0 74 0 165 c 1
EndSplineSet
Validated: 1
EndChar

StartChar: otilde
Encoding: 245 245 133
Width: 798
VWidth: 1024
Flags: W
HStem: 0 138<139.901 520.099> 390 138<139.901 520.099> 678 108<204 312>
VStem: 0 138<139.901 388.099> 522 138<139.901 388.099>
LayerCount: 2
Fore
SplineSet
54 582 m 25
 54 636 l 1
 204 786 l 1
 312 786 l 1
 399 699 l 1
 474 786 l 1
 606 786 l 1
 432 582 l 1
 354 582 l 1
 258 678 l 1
 162 582 l 1
 54 582 l 25
138 165 m 1
 138 150 150 138 165 138 c 1
 495 138 l 1
 510 138 522 150 522 165 c 1
 522 363 l 1
 522 378 510 390 495 390 c 1
 165 390 l 1
 150 390 138 378 138 363 c 1
 138 165 l 1
0 165 m 1
 0 363 l 1
 0 454 74 528 165 528 c 1
 495 528 l 1
 586 528 660 454 660 363 c 1
 660 165 l 1
 660 74 586 0 495 0 c 1
 165 0 l 1
 74 0 0 74 0 165 c 1
EndSplineSet
Validated: 1
EndChar

StartChar: Ydieresis
Encoding: 376 376 134
Width: 798
VWidth: 1024
Flags: W
HStem: 0 138<0 520.099> 198 138<139.901 521.581> 508 20G<0 138 522 660> 630 156<102 264 396 558>
VStem: 0 138<337.901 528> 102 162<630 786> 396 162<630 786> 522 138<139.901 197.391 336.609 528>
LayerCount: 2
Fore
SplineSet
396 630 m 1xf2
 396 786 l 1
 558 786 l 1
 558 630 l 1
 396 630 l 1xf2
102 630 m 1xf4
 102 786 l 1
 264 786 l 1
 264 630 l 1
 102 630 l 1xf4
0 0 m 1xf9
 0 138 l 17
 495 138 l 1
 510 138 522 150 522 165 c 1
 522 171 l 1
 522 186 510 198 495 198 c 1
 165 198 l 1
 74 198 0 272 0 363 c 1
 0 528 l 9
 138 528 l 1
 138 363 l 1
 138 348 150 336 165 336 c 1
 495 336 l 1
 510 336 522 348 522 363 c 9
 522 528 l 1
 660 528 l 1
 660 363 l 1
 660 327 649 294 629 267 c 1
 649 240 660 207 660 171 c 9
 660 165 l 17
 660 74 586 0 495 0 c 1
 0 0 l 1xf9
EndSplineSet
Validated: 1
EndChar

StartChar: Scaron
Encoding: 352 352 135
Width: 798
VWidth: 1024
Flags: W
HStem: 0 138<0 520.099> 198 138<139.901 520.099> 390 138<139.901 660> 582 108<276 384>
VStem: 0 138<337.16 388.84>
LayerCount: 2
Fore
SplineSet
126 786 m 25
 234 786 l 1
 330 690 l 1
 426 786 l 1
 534 786 l 25
 534 732 l 1
 384 582 l 1
 276 582 l 1
 126 732 l 1
 126 786 l 25
0 0 m 1
 0 138 l 1
 495 138 l 1
 510 138 522 150 522 165 c 1
 522 171 l 1
 522 186 510 198 495 198 c 1
 165 198 l 1
 74 198 0 272 0 363 c 0
 0 454 74 528 165 528 c 1
 660 528 l 9
 660 390 l 17
 165 390 l 1
 150 390 138 378 138 363 c 0
 138 348 150 336 165 336 c 1
 495 336 l 1
 586 336 660 262 660 171 c 1
 660 165 l 1
 660 74 586 0 495 0 c 1
 0 0 l 1
EndSplineSet
Validated: 1
EndChar

StartChar: scaron
Encoding: 353 353 136
Width: 798
VWidth: 1024
Flags: W
HStem: 0 138<0 520.099> 198 138<139.901 520.099> 390 138<139.901 660> 582 108<276 384>
VStem: 0 138<337.16 388.84>
LayerCount: 2
Fore
SplineSet
126 786 m 25
 234 786 l 1
 330 690 l 1
 426 786 l 1
 534 786 l 25
 534 732 l 1
 384 582 l 1
 276 582 l 1
 126 732 l 1
 126 786 l 25
0 0 m 1
 0 138 l 1
 495 138 l 1
 510 138 522 150 522 165 c 1
 522 171 l 1
 522 186 510 198 495 198 c 1
 165 198 l 1
 74 198 0 272 0 363 c 0
 0 454 74 528 165 528 c 1
 660 528 l 9
 660 390 l 17
 165 390 l 1
 150 390 138 378 138 363 c 0
 138 348 150 336 165 336 c 1
 495 336 l 1
 586 336 660 262 660 171 c 1
 660 165 l 1
 660 74 586 0 495 0 c 1
 0 0 l 1
EndSplineSet
Validated: 1
EndChar

StartChar: adieresis
Encoding: 228 228 137
Width: 798
VWidth: 1024
Flags: W
HStem: 0 138<139.901 520.099> 192 138<139.901 462> 390 138<0 520.099> 630 156<102 264 396 558>
VStem: 0 138<139.16 190.84> 102 162<630 786> 396 162<630 786> 522 138<139.901 388.099>
LayerCount: 2
Fore
SplineSet
396 630 m 1xf2
 396 786 l 1
 558 786 l 1
 558 630 l 1
 396 630 l 1xf2
102 630 m 1xf4
 102 786 l 1
 264 786 l 1
 264 630 l 1
 102 630 l 1xf4
0 390 m 1xf9
 0 528 l 1
 495 528 l 1
 586 528 660 454 660 363 c 1
 660 165 l 1
 660 74 586 0 495 0 c 1
 165 0 l 1
 74 0 0 74 0 165 c 0
 0 256 74 330 165 330 c 1
 462 330 l 9
 462 192 l 17
 165 192 l 1
 150 192 138 180 138 165 c 0
 138 150 150 138 165 138 c 1
 495 138 l 1
 510 138 522 150 522 165 c 1
 522 363 l 1
 522 378 510 390 495 390 c 1
 0 390 l 1xf9
EndSplineSet
Validated: 1
EndChar

StartChar: aring
Encoding: 229 229 138
Width: 798
VWidth: 1024
Flags: W
HStem: 0 138<139.901 520.099> 192 138<139.901 462> 390 138<0 520.099> 630 156<249 411>
VStem: 0 138<139.16 190.84> 249 162<630 786> 522 138<139.901 388.099>
CounterMasks: 1 0e
LayerCount: 2
Fore
SplineSet
249 630 m 1
 249 786 l 1
 411 786 l 1
 411 630 l 1
 249 630 l 1
0 390 m 1
 0 528 l 1
 495 528 l 1
 586 528 660 454 660 363 c 1
 660 165 l 1
 660 74 586 0 495 0 c 1
 165 0 l 1
 74 0 0 74 0 165 c 0
 0 256 74 330 165 330 c 1
 462 330 l 9
 462 192 l 17
 165 192 l 1
 150 192 138 180 138 165 c 0
 138 150 150 138 165 138 c 1
 495 138 l 1
 510 138 522 150 522 165 c 1
 522 363 l 1
 522 378 510 390 495 390 c 1
 0 390 l 1
EndSplineSet
Validated: 1
EndChar

StartChar: edieresis
Encoding: 235 235 139
Width: 798
VWidth: 1024
Flags: W
HStem: 0 138<139.901 660> 198 138<198 520.099> 390 138<139.901 520.099> 630 156<102 264 396 558>
VStem: 0 138<139.901 388.099> 102 162<630 786> 396 162<630 786> 522 138<337.16 388.84>
LayerCount: 2
Fore
SplineSet
396 630 m 1xf2
 396 786 l 1
 558 786 l 1
 558 630 l 1
 396 630 l 1xf2
102 630 m 1xf4
 102 786 l 1
 264 786 l 1
 264 630 l 1
 102 630 l 1xf4
0 165 m 1xf9
 0 363 l 1
 0 454 74 528 165 528 c 1
 495 528 l 1
 586 528 660 454 660 363 c 0
 660 272 586 198 495 198 c 1
 198 198 l 9
 198 336 l 17
 495 336 l 1
 510 336 522 348 522 363 c 0
 522 378 510 390 495 390 c 1
 165 390 l 1
 150 390 138 378 138 363 c 1
 138 165 l 1
 138 150 150 138 165 138 c 1
 660 138 l 1
 660 0 l 1
 165 0 l 1
 74 0 0 74 0 165 c 1xf9
EndSplineSet
Validated: 1
EndChar

StartChar: odieresis
Encoding: 246 246 140
Width: 798
VWidth: 1024
Flags: W
HStem: 0 138<139.901 520.099> 390 138<139.901 520.099> 630 156<102 264 396 558>
VStem: 0 138<139.901 388.099> 102 162<630 786> 396 162<630 786> 522 138<139.901 388.099>
LayerCount: 2
Fore
SplineSet
396 630 m 1xe4
 396 786 l 1
 558 786 l 1
 558 630 l 1
 396 630 l 1xe4
102 630 m 1xe8
 102 786 l 1
 264 786 l 1
 264 630 l 1
 102 630 l 1xe8
138 165 m 1xf2
 138 150 150 138 165 138 c 1
 495 138 l 1
 510 138 522 150 522 165 c 1
 522 363 l 1
 522 378 510 390 495 390 c 1
 165 390 l 1
 150 390 138 378 138 363 c 1
 138 165 l 1xf2
0 165 m 1
 0 363 l 1
 0 454 74 528 165 528 c 1
 495 528 l 1
 586 528 660 454 660 363 c 1
 660 165 l 1
 660 74 586 0 495 0 c 1
 165 0 l 1
 74 0 0 74 0 165 c 1
EndSplineSet
Validated: 1
EndChar

StartChar: igrave
Encoding: 236 236 141
Width: 396
VWidth: 1024
Flags: W
HStem: 0 21G<60 198> 508 20G<60 198>
VStem: 60 138<0 528>
DStem2: 108 786 0 732 0.707107 -0.707107<0 173.948>
LayerCount: 2
Fore
SplineSet
0 786 m 1
 108 786 l 25
 258 636 l 1
 258 582 l 25
 150 582 l 1
 0 732 l 25
 0 786 l 1
60 0 m 17
 60 528 l 1
 198 528 l 1
 198 0 l 1
 60 0 l 17
EndSplineSet
Validated: 1
EndChar

StartChar: quoteright
Encoding: 8217 8217 142
Width: 276
VWidth: 1024
Flags: W
HStem: 390 138<0 138>
VStem: 0 138<390 528>
LayerCount: 2
Fore
SplineSet
0 390 m 1
 0 528 l 1
 138 528 l 1
 138 390 l 1
 0 390 l 1
EndSplineSet
Validated: 1
EndChar

StartChar: ccedilla
Encoding: 231 231 143
Width: 798
VWidth: 1024
Flags: W
HStem: 0 138<139.901 312 474 660> 390 138<139.901 660>
VStem: 0 138<139.901 388.099>
LayerCount: 2
Fore
SplineSet
0 165 m 1
 0 363 l 1
 0 454 74 528 165 528 c 1
 660 528 l 1
 660 390 l 1
 165 390 l 1
 150 390 138 378 138 363 c 1
 138 165 l 1
 138 150 150 138 165 138 c 1
 660 138 l 9
 660 0 l 1
 474 0 l 1
 324 -150 l 1
 216 -150 l 25
 216 -96 l 1
 312 0 l 1
 165 0 l 1
 74 0 0 74 0 165 c 1
EndSplineSet
Validated: 1
EndChar

StartChar: iacute
Encoding: 237 237 144
Width: 396
VWidth: 1024
Flags: W
HStem: 0 21G<60 198> 508 20G<60 198>
VStem: 60 138<0 528>
DStem2: 0 636 108 582 0.707107 0.707107<38.1838 212.132>
LayerCount: 2
Fore
SplineSet
0 582 m 25
 0 636 l 1
 150 786 l 25
 258 786 l 1
 258 732 l 25
 108 582 l 1
 0 582 l 25
60 0 m 17
 60 528 l 1
 198 528 l 1
 198 0 l 1
 60 0 l 17
EndSplineSet
Validated: 1
EndChar

StartChar: icircumflex
Encoding: 238 238 145
Width: 546
VWidth: 1024
Flags: W
HStem: 0 21G<135 273> 508 20G<135 273> 678 108<150 258>
VStem: 135 138<0 528>
LayerCount: 2
Fore
SplineSet
0 582 m 25
 0 636 l 1
 150 786 l 1
 258 786 l 1
 408 636 l 1
 408 582 l 25
 300 582 l 1
 204 678 l 1
 108 582 l 1
 0 582 l 25
135 0 m 17
 135 528 l 1
 273 528 l 1
 273 0 l 1
 135 0 l 17
EndSplineSet
Validated: 1
EndChar

StartChar: idieresis
Encoding: 239 239 146
Width: 594
VWidth: 1024
Flags: W
HStem: 0 21G<159 297> 508 20G<159 297> 630 156<0 162 294 456>
VStem: 0 162<630 786> 159 138<0 528> 294 162<630 786>
LayerCount: 2
Fore
SplineSet
294 630 m 1xe4
 294 786 l 1
 456 786 l 1
 456 630 l 1
 294 630 l 1xe4
0 630 m 1xf0
 0 786 l 1
 162 786 l 1
 162 630 l 1
 0 630 l 1xf0
159 0 m 17xe8
 159 528 l 1
 297 528 l 1
 297 0 l 1
 159 0 l 17xe8
EndSplineSet
Validated: 1
EndChar

StartChar: ucircumflex
Encoding: 251 251 147
Width: 798
VWidth: 1024
Flags: W
HStem: 0 138<139.901 520.099> 508 20G<0 138 522 660> 678 108<276 384>
VStem: 0 138<139.901 528> 522 138<139.901 528>
LayerCount: 2
Fore
SplineSet
126 582 m 25
 126 636 l 1
 276 786 l 1
 384 786 l 1
 534 636 l 1
 534 582 l 25
 426 582 l 1
 330 678 l 1
 234 582 l 1
 126 582 l 25
0 528 m 1
 138 528 l 1
 138 165 l 1
 138 150 150 138 165 138 c 1
 495 138 l 1
 510 138 522 150 522 165 c 1
 522 528 l 1
 660 528 l 1
 660 165 l 1
 660 74 586 0 495 0 c 1
 165 0 l 1
 74 0 0 74 0 165 c 1
 0 528 l 1
EndSplineSet
Validated: 1
EndChar

StartChar: udieresis
Encoding: 252 252 148
Width: 798
VWidth: 1024
Flags: W
HStem: 0 138<139.901 520.099> 508 20G<0 138 522 660> 630 156<102 264 396 558>
VStem: 0 138<139.901 528> 102 162<630 786> 396 162<630 786> 522 138<139.901 528>
LayerCount: 2
Fore
SplineSet
396 630 m 1xe4
 396 786 l 1
 558 786 l 1
 558 630 l 1
 396 630 l 1xe4
102 630 m 1xe8
 102 786 l 1
 264 786 l 1
 264 630 l 1
 102 630 l 1xe8
0 528 m 1xf2
 138 528 l 1
 138 165 l 1
 138 150 150 138 165 138 c 1
 495 138 l 1
 510 138 522 150 522 165 c 1
 522 528 l 1
 660 528 l 1
 660 165 l 1
 660 74 586 0 495 0 c 1
 165 0 l 1
 74 0 0 74 0 165 c 1
 0 528 l 1xf2
EndSplineSet
Validated: 1
EndChar

StartChar: yacute
Encoding: 253 253 149
Width: 798
VWidth: 1024
Flags: W
HStem: 0 138<0 520.099> 198 138<139.901 521.581> 508 20G<0 138 522 660>
VStem: 0 138<337.901 528> 522 138<139.901 197.391 336.609 528>
DStem2: 201 636 309 582 0.707107 0.707107<38.1838 212.132>
LayerCount: 2
Fore
SplineSet
201 582 m 25
 201 636 l 1
 351 786 l 25
 459 786 l 1
 459 732 l 25
 309 582 l 1
 201 582 l 25
0 0 m 1
 0 138 l 17
 495 138 l 1
 510 138 522 150 522 165 c 1
 522 171 l 1
 522 186 510 198 495 198 c 1
 165 198 l 1
 74 198 0 272 0 363 c 1
 0 528 l 9
 138 528 l 1
 138 363 l 1
 138 348 150 336 165 336 c 1
 495 336 l 1
 510 336 522 348 522 363 c 9
 522 528 l 1
 660 528 l 1
 660 363 l 1
 660 327 649 294 629 267 c 1
 649 240 660 207 660 171 c 9
 660 165 l 17
 660 74 586 0 495 0 c 1
 0 0 l 1
EndSplineSet
Validated: 1
EndChar

StartChar: uacute
Encoding: 250 250 150
Width: 798
VWidth: 1024
Flags: W
HStem: 0 138<139.901 520.099> 508 20G<0 138 522 660>
VStem: 0 138<139.901 528> 522 138<139.901 528>
DStem2: 201 636 309 582 0.707107 0.707107<38.1838 212.132>
LayerCount: 2
Fore
SplineSet
201 582 m 25
 201 636 l 1
 351 786 l 25
 459 786 l 1
 459 732 l 25
 309 582 l 1
 201 582 l 25
0 528 m 1
 138 528 l 1
 138 165 l 1
 138 150 150 138 165 138 c 1
 495 138 l 1
 510 138 522 150 522 165 c 1
 522 528 l 1
 660 528 l 1
 660 165 l 1
 660 74 586 0 495 0 c 1
 165 0 l 1
 74 0 0 74 0 165 c 1
 0 528 l 1
EndSplineSet
Validated: 1
EndChar

StartChar: ugrave
Encoding: 249 249 151
Width: 798
VWidth: 1024
Flags: W
HStem: 0 138<139.901 520.099> 508 20G<0 138 522 660>
VStem: 0 138<139.901 528> 522 138<139.901 528>
DStem2: 309 786 201 732 0.707107 -0.707107<0 173.948>
LayerCount: 2
Fore
SplineSet
201 786 m 1
 309 786 l 25
 459 636 l 1
 459 582 l 25
 351 582 l 1
 201 732 l 25
 201 786 l 1
0 528 m 1
 138 528 l 1
 138 165 l 1
 138 150 150 138 165 138 c 1
 495 138 l 1
 510 138 522 150 522 165 c 1
 522 528 l 1
 660 528 l 1
 660 165 l 1
 660 74 586 0 495 0 c 1
 165 0 l 1
 74 0 0 74 0 165 c 1
 0 528 l 1
EndSplineSet
Validated: 1
EndChar

StartChar: eth
Encoding: 240 240 152
Width: 798
VWidth: 1024
Flags: W
HStem: 0 138<139.901 520.099> 192 138<139.901 411>
VStem: 0 138<139.16 190.84>
DStem2: 522 555 384 555 0.333579 -0.942722<0 45.5407 173.461 385.53>
LayerCount: 2
Fore
SplineSet
0 165 m 0
 0 256 74 330 165 330 c 2
 411 330 l 1
 411 192 l 1
 165 192 l 2
 150 192 138 180 138 165 c 0
 138 150 150 138 165 138 c 2
 495 138 l 2
 510 138 522 150 522 165 c 1
 457 348 l 1
 449 344 l 1
 348 381 l 1
 366 432 l 1
 419 457 l 1
 384 555 l 1
 522 555 l 1
 537 512 l 1
 559 522 l 1
 660 485 l 1
 642 434 l 1
 576 403 l 1
 660 165 l 1
 660 74 586 0 495 0 c 2
 165 0 l 2
 74 0 0 74 0 165 c 0
EndSplineSet
Validated: 1
EndChar

StartChar: egrave
Encoding: 232 232 153
Width: 798
VWidth: 1024
Flags: W
HStem: 0 138<139.901 660> 198 138<198 520.099> 390 138<139.901 520.099>
VStem: 0 138<139.901 388.099> 522 138<337.16 388.84>
DStem2: 309 786 201 732 0.707107 -0.707107<0 173.948>
LayerCount: 2
Fore
SplineSet
201 786 m 1
 309 786 l 25
 459 636 l 1
 459 582 l 25
 351 582 l 1
 201 732 l 25
 201 786 l 1
0 165 m 1
 0 363 l 1
 0 454 74 528 165 528 c 1
 495 528 l 1
 586 528 660 454 660 363 c 0
 660 272 586 198 495 198 c 1
 198 198 l 9
 198 336 l 17
 495 336 l 1
 510 336 522 348 522 363 c 0
 522 378 510 390 495 390 c 1
 165 390 l 1
 150 390 138 378 138 363 c 1
 138 165 l 1
 138 150 150 138 165 138 c 1
 660 138 l 1
 660 0 l 1
 165 0 l 1
 74 0 0 74 0 165 c 1
EndSplineSet
Validated: 1
EndChar

StartChar: eacute
Encoding: 233 233 154
Width: 798
VWidth: 1024
Flags: W
HStem: 0 138<139.901 660> 198 138<198 520.099> 390 138<139.901 520.099>
VStem: 0 138<139.901 388.099> 522 138<337.16 388.84>
DStem2: 201 636 309 582 0.707107 0.707107<38.1838 212.132>
LayerCount: 2
Fore
SplineSet
201 582 m 25
 201 636 l 1
 351 786 l 25
 459 786 l 1
 459 732 l 25
 309 582 l 1
 201 582 l 25
0 165 m 1
 0 363 l 1
 0 454 74 528 165 528 c 1
 495 528 l 1
 586 528 660 454 660 363 c 0
 660 272 586 198 495 198 c 1
 198 198 l 9
 198 336 l 17
 495 336 l 1
 510 336 522 348 522 363 c 0
 522 378 510 390 495 390 c 1
 165 390 l 1
 150 390 138 378 138 363 c 1
 138 165 l 1
 138 150 150 138 165 138 c 1
 660 138 l 1
 660 0 l 1
 165 0 l 1
 74 0 0 74 0 165 c 1
EndSplineSet
Validated: 1
EndChar

StartChar: ecircumflex
Encoding: 234 234 155
Width: 798
VWidth: 1024
Flags: W
HStem: 0 138<139.901 660> 198 138<198 520.099> 390 138<139.901 520.099> 678 108<276 384>
VStem: 0 138<139.901 388.099> 522 138<337.16 388.84>
LayerCount: 2
Fore
SplineSet
126 582 m 25
 126 636 l 1
 276 786 l 1
 384 786 l 1
 534 636 l 1
 534 582 l 25
 426 582 l 1
 330 678 l 1
 234 582 l 1
 126 582 l 25
0 165 m 1
 0 363 l 1
 0 454 74 528 165 528 c 1
 495 528 l 1
 586 528 660 454 660 363 c 0
 660 272 586 198 495 198 c 1
 198 198 l 9
 198 336 l 17
 495 336 l 1
 510 336 522 348 522 363 c 0
 522 378 510 390 495 390 c 1
 165 390 l 1
 150 390 138 378 138 363 c 1
 138 165 l 1
 138 150 150 138 165 138 c 1
 660 138 l 1
 660 0 l 1
 165 0 l 1
 74 0 0 74 0 165 c 1
EndSplineSet
Validated: 1
EndChar

StartChar: atilde
Encoding: 227 227 156
Width: 798
VWidth: 1024
Flags: W
HStem: 0 138<139.901 520.099> 192 138<139.901 462> 390 138<0 520.099> 678 108<204 312>
VStem: 0 138<139.16 190.84> 522 138<139.901 388.099>
LayerCount: 2
Fore
SplineSet
54 582 m 25
 54 636 l 1
 204 786 l 1
 312 786 l 1
 399 699 l 1
 474 786 l 1
 606 786 l 1
 432 582 l 1
 354 582 l 1
 258 678 l 1
 162 582 l 1
 54 582 l 25
0 390 m 1
 0 528 l 1
 495 528 l 1
 586 528 660 454 660 363 c 1
 660 165 l 1
 660 74 586 0 495 0 c 1
 165 0 l 1
 74 0 0 74 0 165 c 0
 0 256 74 330 165 330 c 1
 462 330 l 9
 462 192 l 17
 165 192 l 1
 150 192 138 180 138 165 c 0
 138 150 150 138 165 138 c 1
 495 138 l 1
 510 138 522 150 522 165 c 1
 522 363 l 1
 522 378 510 390 495 390 c 1
 0 390 l 1
EndSplineSet
Validated: 1
EndChar

StartChar: acircumflex
Encoding: 226 226 157
Width: 798
VWidth: 1024
Flags: W
HStem: 0 138<139.901 520.099> 192 138<139.901 462> 390 138<0 520.099> 678 108<276 384>
VStem: 0 138<139.16 190.84> 522 138<139.901 388.099>
LayerCount: 2
Fore
SplineSet
126 582 m 25
 126 636 l 1
 276 786 l 1
 384 786 l 1
 534 636 l 1
 534 582 l 25
 426 582 l 1
 330 678 l 1
 234 582 l 1
 126 582 l 25
0 390 m 1
 0 528 l 1
 495 528 l 1
 586 528 660 454 660 363 c 1
 660 165 l 1
 660 74 586 0 495 0 c 1
 165 0 l 1
 74 0 0 74 0 165 c 0
 0 256 74 330 165 330 c 1
 462 330 l 9
 462 192 l 17
 165 192 l 1
 150 192 138 180 138 165 c 0
 138 150 150 138 165 138 c 1
 495 138 l 1
 510 138 522 150 522 165 c 1
 522 363 l 1
 522 378 510 390 495 390 c 1
 0 390 l 1
EndSplineSet
Validated: 1
EndChar

StartChar: agrave
Encoding: 224 224 158
Width: 798
VWidth: 1024
Flags: W
HStem: 0 138<139.901 520.099> 192 138<139.901 462> 390 138<0 520.099>
VStem: 0 138<139.16 190.84> 522 138<139.901 388.099>
DStem2: 309 786 201 732 0.707107 -0.707107<0 173.948>
LayerCount: 2
Fore
SplineSet
201 786 m 1
 309 786 l 25
 459 636 l 1
 459 582 l 25
 351 582 l 1
 201 732 l 25
 201 786 l 1
0 390 m 1
 0 528 l 1
 495 528 l 1
 586 528 660 454 660 363 c 1
 660 165 l 1
 660 74 586 0 495 0 c 1
 165 0 l 1
 74 0 0 74 0 165 c 0
 0 256 74 330 165 330 c 1
 462 330 l 9
 462 192 l 17
 165 192 l 1
 150 192 138 180 138 165 c 0
 138 150 150 138 165 138 c 1
 495 138 l 1
 510 138 522 150 522 165 c 1
 522 363 l 1
 522 378 510 390 495 390 c 1
 0 390 l 1
EndSplineSet
Validated: 1
EndChar

StartChar: aacute
Encoding: 225 225 159
Width: 798
VWidth: 1024
Flags: W
HStem: 0 138<139.901 520.099> 192 138<139.901 462> 390 138<0 520.099>
VStem: 0 138<139.16 190.84> 522 138<139.901 388.099>
DStem2: 201 636 309 582 0.707107 0.707107<38.1838 212.132>
LayerCount: 2
Fore
SplineSet
201 582 m 25
 201 636 l 1
 351 786 l 25
 459 786 l 1
 459 732 l 25
 309 582 l 1
 201 582 l 25
0 390 m 1
 0 528 l 1
 495 528 l 1
 586 528 660 454 660 363 c 1
 660 165 l 1
 660 74 586 0 495 0 c 1
 165 0 l 1
 74 0 0 74 0 165 c 0
 0 256 74 330 165 330 c 1
 462 330 l 9
 462 192 l 17
 165 192 l 1
 150 192 138 180 138 165 c 0
 138 150 150 138 165 138 c 1
 495 138 l 1
 510 138 522 150 522 165 c 1
 522 363 l 1
 522 378 510 390 495 390 c 1
 0 390 l 1
EndSplineSet
Validated: 1
EndChar
